<svg width="24" height="25" viewBox="0 0 24 25" fill="none" xmlns="http://www.w3.org/2000/svg">
<path d="M20 7.4942H4C2.89543 7.4942 2 8.38963 2 9.4942V19.4942C2 20.5988 2.89543 21.4942 4 21.4942H20C21.1046 21.4942 22 20.5988 22 19.4942V9.4942C22 8.38963 21.1046 7.4942 20 7.4942Z" stroke="#222222" stroke-width="2" stroke-linecap="round" stroke-linejoin="round"/>
<path d="M16 21.4942V5.4942C16 4.96377 15.7893 4.45506 15.4142 4.07999C15.0391 3.70492 14.5304 3.4942 14 3.4942H10C9.46957 3.4942 8.96086 3.70492 8.58579 4.07999C8.21071 4.45506 8 4.96377 8 5.4942V21.4942" stroke="#222222" stroke-width="2" stroke-linecap="round" stroke-linejoin="round"/>
</svg>
