<svg width="532" height="462" viewBox="0 0 532 462" fill="none" xmlns="http://www.w3.org/2000/svg">
<mask id="mask0_59_2" style="mask-type:alpha" maskUnits="userSpaceOnUse" x="158" y="64" width="148" height="148">
<path d="M288.805 211.579H174.501C165.471 211.579 158.15 204.258 158.15 195.228V80.9266C158.15 71.8962 165.471 64.5757 174.501 64.5757H288.805C297.835 64.5757 305.153 71.8962 305.153 80.9266V195.228C305.153 204.258 297.835 211.579 288.805 211.579ZM182.11 155.087H281.196V70.0722H182.11V155.087Z" fill="white"/>
</mask>
<g mask="url(#mask0_59_2)">
<path fill-rule="evenodd" clip-rule="evenodd" d="M288.805 211.579H174.501C165.471 211.579 158.15 204.258 158.15 195.228V80.9266C158.15 71.8962 165.471 64.5757 174.501 64.5757H288.805C297.835 64.5757 305.153 71.8962 305.153 80.9266V195.228C305.153 204.258 297.835 211.579 288.805 211.579ZM182.11 155.087H281.196V70.0722H182.11V155.087Z" fill="url(#paint0_linear_59_2)" fill-opacity="0.18"/>
</g>
<path fill-rule="evenodd" clip-rule="evenodd" d="M197.128 181.581H265.618V178.24H197.128V181.581Z" fill="#FF6D31"/>
<path fill-rule="evenodd" clip-rule="evenodd" d="M207.151 192.161H255.595V188.82H207.151V192.161Z" fill="#FF6D31"/>
<mask id="mask1_59_2" style="mask-type:alpha" maskUnits="userSpaceOnUse" x="329" y="115" width="202" height="237">
<path d="M510.869 351.901H348.341C337.713 351.901 329.097 343.28 329.097 332.645V135.062C329.097 124.426 337.713 115.804 348.341 115.804H510.869C521.498 115.804 530.113 124.426 530.113 135.062V332.645C530.113 343.28 521.498 351.901 510.869 351.901Z" fill="white"/>
</mask>
<g mask="url(#mask1_59_2)">
<path opacity="0.18" fill-rule="evenodd" clip-rule="evenodd" d="M510.869 351.901H348.341C337.713 351.901 329.097 343.28 329.097 332.645V135.062C329.097 124.426 337.713 115.804 348.341 115.804H510.869C521.498 115.804 530.113 124.426 530.113 135.062V332.645C530.113 343.28 521.498 351.901 510.869 351.901Z" fill="url(#paint1_linear_59_2)"/>
</g>
<path fill-rule="evenodd" clip-rule="evenodd" d="M420.418 258.424H436.009V255.083H420.418V258.424Z" fill="#DE2C67"/>
<path fill-rule="evenodd" clip-rule="evenodd" d="M364.304 240.535H361.393V259.467H381.439V256.566H364.304V240.535ZM493.796 240.535V256.566H476.658V259.467H496.704V240.535H493.796ZM361.393 158.124H364.304V142.092H381.439V139.191H361.393V158.124ZM476.658 139.191V142.092H493.796V158.124H496.704V139.191H476.658Z" fill="#DE2C67"/>
<path fill-rule="evenodd" clip-rule="evenodd" d="M269.333 122.065C266.067 113.368 258.222 109.374 254.519 108.129C253.202 107.689 250.846 106.914 248.364 106.106C243.891 104.651 239.005 103.068 239.005 103.068H223.575C223.575 103.068 218.231 104.871 212.551 106.875L212.548 106.88C207.316 108.727 201.806 110.741 199.948 111.682C196.069 113.632 189.544 127.573 188.224 129.17C187.544 129.993 184.515 135.423 181.537 141.489H198.161C199.918 138.451 201.27 136.094 201.27 136.094C201.27 136.094 202.322 138.417 203.596 141.489H256.856C257.698 137.922 258.222 133.428 258.222 133.428C258.222 133.428 261.075 137.334 264.19 141.489H279.539C275.805 135.183 271.173 126.975 269.333 122.065Z" fill="#385369"/>
<path fill-rule="evenodd" clip-rule="evenodd" d="M233.075 60.8628C233.075 60.8628 244.969 62.7725 243.157 81.7392C241.346 100.706 230.849 99.1512 230.148 99.1321C229.447 99.1128 219.612 99.4779 218.845 76.3208C218.845 76.3208 218.51 59.1968 233.075 60.8628Z" fill="#EEA886"/>
<path fill-rule="evenodd" clip-rule="evenodd" d="M243.396 76.3934C243.396 76.3934 244.537 75.0087 244.957 76.4107C245.377 77.8126 243.399 84.0658 243.326 84.358C243.326 84.358 243.119 84.9018 242.844 84.6024C242.571 84.3033 243.396 76.3934 243.396 76.3934Z" fill="#EEA886"/>
<path fill-rule="evenodd" clip-rule="evenodd" d="M243.393 79.087L241.666 81.3918C241.666 81.3918 241.716 76.3388 241.437 75.5466C241.161 74.7545 240.738 72.3339 240.507 71.763C240.275 71.1925 230.153 68.3591 221.215 72.5902C221.215 72.5902 221.608 76.2238 220.75 76.5472C219.895 76.8704 220.315 82.4651 220.315 82.4651L218.894 80.8655C218.894 80.8655 216.724 66.3698 217.259 64.8591C217.797 63.348 219.505 54.2647 237.846 59.6568C237.846 59.6568 243.563 58.4472 244.711 62.3906C245.859 66.3337 243.393 79.087 243.393 79.087Z" fill="#222222"/>
<path fill-rule="evenodd" clip-rule="evenodd" d="M240.128 103.02L238.588 102.255C237.839 100.565 238.394 93.4328 238.394 93.4328C238.394 93.4328 223.111 89.4996 223.546 92.5071C223.984 95.5149 222.231 102.502 222.231 102.502L214.39 106.439C214.39 106.439 222.744 129.12 232.344 126.194C241.947 123.269 245.572 105.621 245.572 105.621L240.128 103.02Z" fill="#EEA886"/>
<path fill-rule="evenodd" clip-rule="evenodd" d="M238.035 260.91C238.035 260.91 241.272 261.519 242.377 260.026C243.317 258.756 245.466 257.78 246.128 257.48C247.011 257.075 249.255 254.846 249.786 255.937C250.313 257.026 246.265 259.789 245.533 260.533C244.801 261.279 249.502 261.61 250.316 262.335C251.126 263.059 250.128 270.677 246.927 270.084C243.726 269.489 240.708 266.781 240.125 266.787C239.538 266.792 237.777 266.445 237.777 266.445L238.035 260.91Z" fill="#EEA886"/>
<path fill-rule="evenodd" clip-rule="evenodd" d="M249.689 261.765C249.689 261.765 259.081 264.252 259.572 264.953C260.065 265.656 259.901 266.17 259.013 265.974C258.126 265.779 249.871 263.842 249.871 263.842C249.871 263.842 260.506 268.699 261.031 269.184C261.336 269.469 261.083 270.483 260.598 270.424C260.114 270.365 249.305 266.167 249.305 266.167C249.305 266.167 259.226 270.723 259.547 271.261C259.828 271.736 259.365 272.607 258.608 272.319C257.848 272.035 248.406 268.339 248.406 268.339C248.406 268.339 255.424 272.121 255.432 272.741C255.438 273.12 255.258 274.008 253.477 272.975C251.696 271.94 247.243 269.955 247.243 269.955L249.689 261.765Z" fill="#EEA886"/>
<path fill-rule="evenodd" clip-rule="evenodd" d="M190.362 217.899C193.69 221.501 196.815 227.243 197.686 229.165C198.556 231.086 210.774 248.886 211.409 249.286C212.041 249.684 218.183 251.757 222.251 253.14C228.532 255.275 241.118 259.896 241.118 259.896L238.617 267.89C238.617 267.89 214.95 260.067 209.021 258.594C201.773 256.79 185.088 235.167 185.088 235.167C185.088 235.167 172.649 220.44 182.631 213.877C182.631 213.877 187.035 214.297 190.362 217.899Z" fill="#DE2C67"/>
<mask id="mask2_59_2" style="mask-type:alpha" maskUnits="userSpaceOnUse" x="319" y="10" width="109" height="99">
<path d="M413.655 10.5631C421.07 10.5631 427.082 16.5752 427.099 23.9981V94.5739L427.098 94.7648C426.979 102.1 421.007 108.009 413.655 108.009H332.519C325.093 108.009 319.074 101.98 319.074 94.5421V24.03C319.074 16.5924 325.093 10.5631 332.519 10.5631" fill="white"/>
</mask>
<g mask="url(#mask2_59_2)">
<path opacity="0.182268" fill-rule="evenodd" clip-rule="evenodd" d="M413.655 108.009H332.519C325.093 108.009 319.074 101.98 319.074 94.5421V24.03C319.074 16.5924 325.093 10.5631 332.519 10.5631H413.655C421.081 10.5631 427.099 16.5924 427.099 24.03V94.5421C427.099 101.98 421.081 108.009 413.655 108.009Z" fill="url(#paint2_linear_59_2)"/>
</g>
<path fill-rule="evenodd" clip-rule="evenodd" d="M368.632 90.8176H376.985V89.1471H368.632V90.8176Z" fill="#DE2C67"/>
<path fill-rule="evenodd" clip-rule="evenodd" d="M393.69 79.124H386.236C385.876 75.4465 385.541 72.8867 385.609 72.5077C385.718 71.8828 378.191 52.1349 377.488 50.5017C376.783 48.8727 374.022 44.4924 373.662 40.3677C373.296 36.2431 378.675 34.5775 378.675 34.5775C385.935 35.8781 388.392 45.9206 388.392 45.9206C388.392 45.9206 391.44 66.2844 392.984 72.015C393.38 73.4843 393.594 76.0806 393.69 79.124Z" fill="#EEA886"/>
<path fill-rule="evenodd" clip-rule="evenodd" d="M387.232 62.9056C386.914 65.3956 385.606 74.2164 385.899 76.5978C385.949 76.991 386.109 77.895 386.353 79.124H360.012C360.712 76.607 361.351 74.379 361.736 73.0821C363.017 68.8116 361.791 67.6687 361.144 64.2524C360.892 62.9151 360.006 60.3749 359.044 57.5056C358.72 56.5476 358.388 55.5489 358.067 54.5461C356.91 50.9306 356.371 47.2345 356.039 45.0834C354.451 34.8843 362.242 33.9038 362.242 33.9038C365.139 33.366 370.2 31.7933 370.2 31.7933L378.124 33.452C378.124 33.452 378.876 33.7367 379.978 34.5546L379.98 34.5591C380.512 34.952 381.123 35.4672 381.765 36.1317C382.631 37.0265 384.355 39.5884 386.073 42.4037C386.599 43.267 387.13 44.1526 387.628 45.0246C389.238 47.831 390.384 50.0946 390.348 52.6478C390.318 55.1607 387.551 60.4159 387.232 62.9056Z" fill="#EB4747"/>
<path fill-rule="evenodd" clip-rule="evenodd" d="M364.834 50.5432C364.411 52.2629 362.456 69.6816 362.669 70.2758C362.795 70.6164 363.739 74.6456 364.687 79.124H355.944C355.048 76.2382 354.518 73.8423 354.646 72.4858C355.204 66.6101 353.178 47.8797 353.178 47.8797C353.178 47.8797 351.363 36.5501 360.928 35.1343C360.928 35.1343 366.581 35.8652 366.923 39.9666C367.264 44.0728 365.258 48.8282 364.834 50.5432Z" fill="#EEA886"/>
<path fill-rule="evenodd" clip-rule="evenodd" d="M338.43 82.3943H336.893V92.4173H347.473V90.8817H338.43V82.3943ZM408.301 82.3943V90.8817H399.258V92.4173H409.838V82.3943H408.301ZM336.893 37.8478H338.43V29.3606H347.473V27.8248H336.893V37.8478ZM399.258 27.8248V29.3606H408.301V37.8478H409.838V27.8248H399.258Z" fill="#DE2C67"/>
<path fill-rule="evenodd" clip-rule="evenodd" d="M184.754 153.112H182.651V166.476H197.128V164.429H184.754V153.112ZM277.996 153.112V164.429H265.619V166.476H280.096V153.112H277.996ZM182.651 93.5311H184.754V82.2147H197.128V80.1671H182.651V93.5311ZM265.619 80.1671V82.2147H277.996V93.5311H280.096V80.1671H265.619Z" fill="#DE2C67"/>
<path fill-rule="evenodd" clip-rule="evenodd" d="M486.681 239.492H477.035C476.857 239.103 476.715 238.764 476.596 238.493C473.734 231.684 458.982 216.073 458.982 216.073C458.982 216.073 458.982 216.081 458.982 216.106L458.974 216.123V216.143L458.949 216.21C458.94 216.243 458.932 216.285 458.915 216.336L458.899 216.42C458.89 216.445 458.882 216.462 458.874 216.487C458.268 218.762 455.295 230.095 453.809 239.492H388.527C388.377 238.621 388.202 237.79 387.999 237.021C387.404 234.687 386.999 232.378 386.74 230.221C386.732 230.112 386.715 230.011 386.707 229.902C386.657 229.505 386.613 229.107 386.579 228.715C386.018 222.814 386.438 218.289 386.471 217.833C386.288 218.23 384.968 223.102 383.24 229.113C382.29 232.412 381.215 236.058 380.148 239.492H364.734L384.079 183.277C384.507 182.938 389.527 180.494 393.189 178.735C396.925 176.942 401.434 174.312 405.504 172.063C407.588 170.912 409.552 169.872 411.258 169.086L411.516 168.967V168.959C414.331 167.665 416.203 166.811 416.203 166.811H416.212C416.278 166.803 416.723 166.76 417.428 166.692C421.357 166.312 433.55 165.162 437.631 164.925C437.965 164.899 438.251 164.891 438.47 164.882C438.654 164.874 438.798 164.874 438.882 164.882C439.393 164.916 441.913 165.796 445.213 167.064C445.338 167.107 445.463 167.157 445.588 167.208C445.749 167.268 445.899 167.327 446.061 167.386C446.347 167.496 446.638 167.606 446.933 167.724C447.522 167.961 448.133 168.198 448.747 168.443C448.955 168.528 449.175 168.612 449.394 168.697C456.001 171.335 463.574 174.608 465.372 175.911C466.564 176.765 470.267 183.793 474.556 192.487C479.174 207.387 484.825 228.886 486.681 239.492Z" fill="#DECBC4"/>
<path fill-rule="evenodd" clip-rule="evenodd" d="M438.793 163.071C438.618 171.796 421.632 176.57 421.632 176.57C421.632 176.57 414.528 167.71 416.225 166.862C416.891 166.529 417.164 165.206 417.247 163.724C417.322 162.312 417.233 160.755 417.15 159.766C417.1 159.149 417.05 158.753 417.05 158.753C417.05 158.753 419.477 156.206 422.565 153.172C427.959 147.866 435.377 141.069 435.388 143.773C435.388 143.916 435.369 144.088 435.327 144.286C434.022 150.371 438.793 163.071 438.793 163.071Z" fill="#EEA886"/>
<path fill-rule="evenodd" clip-rule="evenodd" d="M432.111 150.398V150.4C432.078 150.451 431.36 151.517 430.138 153.047C427.543 156.291 422.666 161.621 417.183 163.762C417.258 162.358 417.169 160.81 417.086 159.826C416.525 159.813 415.964 159.747 415.406 159.625C416.912 157.014 419.082 154.276 419.082 154.276L422.475 153.267L432.111 150.398Z" fill="#A77860"/>
<path fill-rule="evenodd" clip-rule="evenodd" d="M435.703 143.825C434.211 147.036 432.795 149.363 432.392 150.286V150.287C432.129 150.888 431.419 151.867 430.378 152.976C427.535 156.005 422.25 160.001 417.058 159.861C416.485 159.847 415.913 159.781 415.343 159.657C413.247 159.204 410.771 158.24 409.409 155.6C398.647 134.756 406.439 117.711 406.439 117.711C406.439 117.711 435.861 109.479 440.464 118.242C443.696 124.388 439.208 136.279 435.703 143.825Z" fill="#EEA886"/>
<path fill-rule="evenodd" clip-rule="evenodd" d="M406.729 117.796C406.729 117.796 404.013 117.646 403.341 112.495C402.676 107.407 404.019 105.997 404.019 105.997C404.019 105.997 416.091 100.942 420.427 100.285C424.76 99.6275 435.42 98.9964 437.92 101.854C437.92 101.854 443.991 100.443 445.645 110.524C448.268 126.517 436.704 142.046 436.704 142.046C436.704 142.046 436.802 131.598 434.498 130.214C432.194 128.829 430.206 132.122 430.206 132.122L425.495 132.966C425.495 132.966 432.651 117.508 424.065 116.936C415.48 116.363 411.643 118.692 406.729 117.796Z" fill="#222222"/>
<path fill-rule="evenodd" clip-rule="evenodd" d="M430.035 127.905C430.481 123.484 438.765 121.796 438.209 126.43C437.654 131.065 433.575 135.517 431.692 135.36C429.806 135.203 429.694 131.275 430.035 127.905Z" fill="#EEA886"/>
<path fill-rule="evenodd" clip-rule="evenodd" d="M478.552 192.943C475.849 184.279 473.51 177.424 472.47 176.68C470.653 175.378 456.26 171.414 449.426 168.735C449.205 168.65 448.984 168.566 448.774 168.481C448.157 168.236 447.542 167.999 446.949 167.763C446.653 167.645 446.359 167.535 446.071 167.424C445.909 167.365 445.758 167.306 445.596 167.247C445.47 167.196 445.345 167.146 445.219 167.103L445.182 167.137C444.576 167.822 441.414 171.414 437.641 176.79C430.577 186.831 421.378 203.103 422.79 218.124C423.245 222.94 423.801 229.862 424.741 237.632C424.808 238.25 424.883 238.865 424.967 239.492H456.833C457.222 231.358 457.915 220.649 458.963 216.499C458.972 216.474 458.98 216.457 458.988 216.432L459.005 216.348C459.013 216.306 459.03 216.264 459.039 216.222L459.064 216.155V216.135L459.072 216.119C459.072 216.119 466.784 228.181 467.181 239.492H487.237C486.256 228.984 483.19 207.812 478.552 192.943Z" fill="#3C4145"/>
<path fill-rule="evenodd" clip-rule="evenodd" d="M411.508 169.432C411.508 169.432 409.1 177.422 405.99 197.37V197.378C405.878 198.044 405.778 198.726 405.669 199.426C405.66 199.502 405.643 199.586 405.635 199.67C405.557 200.126 405.49 200.598 405.423 201.069C405.414 201.128 405.406 201.179 405.397 201.238C405.347 201.55 405.297 201.87 405.255 202.198C405.135 202.982 405.017 203.792 404.9 204.609C403.733 212.749 402.176 225.685 400.595 239.492H387.993C387.308 235.657 386.668 232.166 386.718 229.773C386.693 229.824 386.676 229.885 386.659 229.935C385.652 232.715 384.545 235.741 383.421 238.683C383.32 238.951 383.219 239.221 383.116 239.492H361.393L383.032 183.051C383.463 182.714 389.034 179.722 392.72 177.978C396.565 176.149 401.426 173.898 405.736 171.918C407.797 170.966 409.732 170.081 411.374 169.331L411.508 169.432Z" fill="#3C4145"/>
<path fill-rule="evenodd" clip-rule="evenodd" d="M440.506 189.021L432.171 193.721L435.735 197.347L427.915 239.492H424.97C423.886 230.97 423.27 223.32 422.789 218.124C420.613 194.895 443.815 168.701 445.254 167.103C446.369 167.526 447.573 167.991 448.816 168.481L440.506 189.021Z" fill="#51565C"/>
<path fill-rule="evenodd" clip-rule="evenodd" d="M411.508 169.331C411.508 169.331 408.389 179.435 404.761 204.668C403.591 212.786 402.02 225.709 400.435 239.492H399.206L397.587 199.855L401.563 195.581L398.028 191.198L405.591 172.031C407.659 171.081 409.6 170.197 411.247 169.449L411.508 169.331Z" fill="#51565C"/>
<path fill-rule="evenodd" clip-rule="evenodd" d="M446.032 167.389L439.041 163.206C439.041 163.206 438.845 166.983 421.531 176.848L426.448 190.49L446.032 167.389Z" fill="#F5E2D9"/>
<path fill-rule="evenodd" clip-rule="evenodd" d="M417.047 164.876C417.047 164.876 417.312 168.932 421.531 176.558L412.187 188.82L411.508 168.932L417.047 164.876Z" fill="#F5E2D9"/>
<path fill-rule="evenodd" clip-rule="evenodd" d="M421.854 176.57C421.854 176.57 423.73 183.963 423.055 186.033C423.055 186.033 418.929 187.511 415.963 185.663C415.963 185.663 418.062 180.488 421.854 176.57Z" fill="#D44040"/>
<path fill-rule="evenodd" clip-rule="evenodd" d="M419.366 201.878C417.481 214.981 417.481 228.235 418.181 239.491H410.304C410.198 237.904 410.097 236.248 409.999 234.519C408.534 208.572 417.522 185.39 417.522 185.39L421.531 184.365C421.531 184.365 420.24 195.83 419.366 201.878Z" fill="#D44040"/>
<path fill-rule="evenodd" clip-rule="evenodd" d="M387.024 217.691C386.71 223.931 386.756 229.472 386.756 229.472V229.477C386.756 229.505 386.747 229.675 386.736 229.954C386.721 229.848 386.707 229.745 386.696 229.639C385.672 232.419 384.539 235.436 383.398 238.378C383.132 234.971 383.061 231.795 383.141 228.856C383.597 211.359 389.235 202.184 389.235 202.184C387.94 205.233 387.321 211.776 387.024 217.691Z" fill="#2D3133"/>
<path fill-rule="evenodd" clip-rule="evenodd" d="M311.836 239.35L285.997 253.412L260.05 212.977L291.436 202.184L311.836 239.35Z" fill="#292C47"/>
<path fill-rule="evenodd" clip-rule="evenodd" d="M310.165 238.443L285.994 251.742L261.721 213.505L291.079 203.297L310.165 238.443Z" fill="white"/>
<path fill-rule="evenodd" clip-rule="evenodd" d="M319.074 231.105C319.074 231.105 314.58 228.998 312.606 227.896C310.633 226.792 305.557 225.279 305.146 224.92C304.738 224.561 290.099 223.676 289.211 222.925C288.325 222.174 287.461 224.684 291.254 225.501C295.047 226.315 300.327 228.307 300.615 229.76C300.906 231.215 296.718 231.56 296.296 232.757C295.872 233.952 296.414 233.684 297.015 233.941C297.613 234.199 301.993 231.82 303.919 232.497C305.842 233.171 308.785 232.237 310.261 232.733C311.737 233.226 318.912 235.594 318.912 235.594L319.074 231.105Z" fill="#EEA886"/>
<path fill-rule="evenodd" clip-rule="evenodd" d="M284.769 248.401C284.769 248.401 281.007 245.037 279.185 243.63C277.364 242.222 273.946 238.084 273.442 237.84C272.941 237.6 266.413 224.298 265.349 223.767C264.285 223.233 266.357 221.441 268.607 224.658C270.861 227.877 274.815 232.018 276.319 231.714C277.826 231.412 276.531 227.374 277.514 226.508C278.494 225.642 278.45 226.254 278.926 226.713C279.405 227.172 278.829 232.189 280.221 233.719C281.614 235.249 281.862 238.36 282.909 239.541C283.956 240.722 289.005 246.484 289.005 246.484L284.769 248.401Z" fill="#EEA886"/>
<path fill-rule="evenodd" clip-rule="evenodd" d="M344.276 172.025C344.276 172.025 332.939 167.853 327.714 176.355C322.485 184.857 322.989 201.878 328.703 203.971C334.418 206.064 343.001 204.971 345.928 199.65C348.853 194.33 351.495 186.639 351.366 181.499C351.24 176.359 347.253 173.509 344.276 172.025Z" fill="#EEA886"/>
<path fill-rule="evenodd" clip-rule="evenodd" d="M329.987 204.482C329.987 204.482 330.455 207.511 329.682 209.006C328.909 210.498 344.234 210.536 344.234 210.536C344.234 210.536 345.478 202.418 347.838 195.559C350.196 188.7 329.987 204.482 329.987 204.482Z" fill="#EEA886"/>
<path fill-rule="evenodd" clip-rule="evenodd" d="M348.102 195.385C348.102 195.385 347.03 197.14 342.659 196.459C338.285 195.778 332.951 190.002 331.124 189.368C329.298 188.734 329.281 187.669 329.281 187.669L328.139 189.327L326.197 189.448C326.197 189.448 327.968 184.281 325.299 182.174C322.631 180.067 328.069 165.451 342.092 170.317C342.092 170.317 352.864 173.265 352.474 179.347C352.081 185.428 350.513 192.356 348.102 195.385Z" fill="#222222"/>
<path fill-rule="evenodd" clip-rule="evenodd" d="M328.54 209.045C328.54 209.045 328.588 206.272 329.885 206.006C331.183 205.743 344.21 204.529 345.802 205.136V208.365C345.802 208.365 342.732 210.191 328.54 209.045Z" fill="#E2D2CA"/>
<path fill-rule="evenodd" clip-rule="evenodd" d="M329.442 185.46C329.691 184.444 332.316 181.54 333.321 184.649C334.328 187.758 331.803 191.94 330.393 191.583C328.985 191.225 328.819 188.036 329.442 185.46Z" fill="#EEA886"/>
<path fill-rule="evenodd" clip-rule="evenodd" d="M276.911 242.959L276.93 242.956C276.843 242.994 276.83 242.999 276.911 242.959Z" fill="#323657"/>
<path fill-rule="evenodd" clip-rule="evenodd" d="M367.674 316.431C367.674 316.431 360.744 318.474 348.921 319.778C337.102 321.081 307.567 319.306 307.38 317.907C307.193 316.509 313.733 265.834 313.362 263.224C312.989 260.614 312.791 251.315 312.791 251.315C312.643 253.864 310.051 264.271 306.923 269.946C305.791 271.995 302 278.418 300.171 276.958C291.323 269.885 277.622 243.225 276.755 242.999C277.483 242.681 283.247 240.024 284.056 239.756C284.764 239.518 291.148 246.285 295.014 250.481C296.74 252.351 297.963 253.71 297.963 253.71C299.081 251.195 303.148 235.342 304.411 229.854C307.263 217.482 306.825 216.968 306.825 216.968C315.473 214.347 328.6 209.018 328.6 209.018L345.919 208.309C345.919 208.309 361.814 211.815 368.075 214.646C368.669 214.914 368.672 228.846 370.303 232.5L365.112 243.465C365.112 243.465 362.113 265.186 361.491 274.845C361.204 279.281 367.674 316.431 367.674 316.431Z" fill="#FFDF69"/>
<path fill-rule="evenodd" clip-rule="evenodd" d="M371.168 250.368C370.715 251.831 368.668 253.067 367.335 253.606C366.484 253.952 365.53 254.064 364.568 253.885L363.892 253.759L352.048 251.554C352.048 251.554 349.459 221.61 368.228 214.434C368.723 214.596 375.313 236.96 371.168 250.368Z" fill="#FFDF69"/>
<path fill-rule="evenodd" clip-rule="evenodd" d="M367.519 253.604C366.555 253.952 365.475 254.064 364.386 253.885L363.621 253.758L364.943 238.378L367.519 253.604Z" fill="#AB9546"/>
<path fill-rule="evenodd" clip-rule="evenodd" d="M297.915 253.695L296.547 259.537C296.547 259.537 295.062 253.674 295.133 250.628C296.76 252.404 297.915 253.695 297.915 253.695Z" fill="#AB9546"/>
<path fill-rule="evenodd" clip-rule="evenodd" d="M347.473 172.704C347.473 172.704 362.338 170.811 347.724 196.059L347.473 172.704Z" fill="#222222"/>
<path fill-rule="evenodd" clip-rule="evenodd" d="M272.135 210.536L270.63 207.948L282.489 203.854L283.994 206.428L272.135 210.536Z" fill="#292C47"/>
<path fill-rule="evenodd" clip-rule="evenodd" d="M359.723 287.936H452.714V282.368H359.723V287.936Z" fill="#FF6D31"/>
<path fill-rule="evenodd" clip-rule="evenodd" d="M359.723 315.221H434.895V309.652H359.723V315.221Z" fill="#FF6D31"/>
<path fill-rule="evenodd" clip-rule="evenodd" d="M359.723 301.857H403.713V296.288H359.723V301.857Z" fill="#FF6D31"/>
<path fill-rule="evenodd" clip-rule="evenodd" d="M487.516 285.081C479.994 285.081 473.873 291.199 473.873 298.725C473.873 306.248 479.994 312.366 487.516 312.366C495.038 312.366 501.158 306.248 501.158 298.725C501.158 291.199 495.038 285.081 487.516 285.081ZM487.516 315.707C478.151 315.707 470.532 308.088 470.532 298.725C470.532 289.359 478.151 281.74 487.516 281.74C496.881 281.74 504.499 289.359 504.499 298.725C504.499 308.088 496.881 315.707 487.516 315.707Z" fill="#DE2C67"/>
<path fill-rule="evenodd" clip-rule="evenodd" d="M486.699 305.755L478.885 298.012L481.237 295.679L486.699 301.088L494.352 293.504L496.704 295.838L486.699 305.755Z" fill="#DE2C67"/>
<path fill-rule="evenodd" clip-rule="evenodd" d="M218.896 75.8952C218.896 75.8952 217.713 74.4022 217.246 75.8769C216.777 77.352 218.738 84.0184 218.825 84.3309C218.825 84.3309 219.036 84.9114 219.332 84.601C219.625 84.2903 218.896 75.8952 218.896 75.8952Z" fill="#EEA886"/>
<path fill-rule="evenodd" clip-rule="evenodd" d="M223.856 95.6383C223.856 95.6383 226.335 99.0635 230.642 99.0635C233.476 99.0635 235.511 98.2146 238.334 95.2722C238.334 95.2722 237.11 100.86 230.662 101.38C230.662 101.38 225.989 102.015 223.856 95.6383Z" fill="#A77860"/>
<path fill-rule="evenodd" clip-rule="evenodd" d="M179.562 171.279C179.562 171.279 188.324 175.62 186.156 187.429C183.99 199.238 183.031 200.83 185.456 205.445C187.878 210.058 190.738 229.742 188.556 233.472C186.376 237.203 161.567 217.078 158.126 200.191C154.687 183.305 160.308 175.795 162.295 172.997C164.281 170.199 171.828 167.303 179.562 171.279Z" fill="#222222"/>
<path fill-rule="evenodd" clip-rule="evenodd" d="M153.924 280.101C153.924 280.101 147.319 288.599 145.527 298.684C143.736 308.768 146.586 342.611 146.507 347.596C146.429 352.578 141.747 364.98 142.682 374.368C143.62 383.758 147.316 430.485 147.316 430.485L157.437 428.497C157.437 428.497 156.851 380.859 157.437 376.919C158.023 372.979 159.197 358.615 159.431 356.992C159.665 355.369 174.298 312.761 174.298 305.489C174.298 298.221 169.848 268.24 153.924 280.101Z" fill="#222222"/>
<path fill-rule="evenodd" clip-rule="evenodd" d="M186.902 283.383C186.902 283.383 197.713 324.391 198.999 330.072C200.281 335.751 202.139 340.437 202.139 342.85C202.139 348.448 200.048 357.435 200.048 357.435L186.318 422.689H173.241C173.241 422.689 180.527 383.542 180.724 375.886C180.92 368.215 186.862 357.32 185.698 354.074C184.53 350.827 166.912 313.373 166.912 313.373C166.912 313.373 153.571 271.479 186.902 283.383Z" fill="#222222"/>
<path fill-rule="evenodd" clip-rule="evenodd" d="M174.442 210.836C174.442 210.836 180.182 213.549 182.174 213.945C184.167 214.344 191.902 224.391 193.258 228.061C194.611 231.728 193.258 237.231 190.468 243.689C187.677 250.146 190.306 252.301 189.03 258.759C187.755 265.219 188.165 289.381 188.405 292.97C188.645 296.556 151.087 301.995 143.672 295.457C143.672 295.457 148.692 273.681 154.636 267.466C155.92 266.123 155.786 257.165 154.907 254.933C154.03 252.7 144.144 236.034 144.144 236.034C144.144 236.034 143.418 219.13 147.732 215.782C151.48 212.871 161.693 211.833 163.526 211.194C165.359 210.557 170.695 210.278 174.442 210.836Z" fill="#FFBF55"/>
<path fill-rule="evenodd" clip-rule="evenodd" d="M177.639 203.98C177.639 203.98 177.463 205.575 177.261 207.728C177.184 208.58 177.099 209.52 177.022 210.485C176.789 213.372 176.601 216.469 176.715 218.056C176.715 218.056 170.633 224.086 163.718 211.022C163.718 211.022 166.625 205.634 164.438 198.301C162.248 190.964 177.639 203.98 177.639 203.98Z" fill="#EEA886"/>
<path fill-rule="evenodd" clip-rule="evenodd" d="M194.207 246.174C194.207 246.174 195.834 236.479 194.106 230.582C194.106 230.582 194.106 235.652 191.003 242.851L194.207 246.174Z" fill="#183C59"/>
<path fill-rule="evenodd" clip-rule="evenodd" d="M159.264 212.151C159.264 212.151 163.369 224.181 174.637 223.297C185.907 222.411 179.979 213.137 179.979 213.137C179.979 213.137 177.171 211.539 176.381 211.39C175.591 211.237 163.922 211.093 163.922 211.093L159.264 212.151Z" fill="#EEA886"/>
<path fill-rule="evenodd" clip-rule="evenodd" d="M185.826 246.129C185.826 262.686 186.304 289.662 188.384 298.178C190.466 306.697 196.386 333.039 196.386 333.039L201.026 330.673C201.026 330.673 189.869 288.632 189.026 285.598C188.184 282.568 189.666 250.54 190.466 247.86C191.266 245.176 194.667 233.241 194.14 229.928C193.472 225.753 189.511 219.576 183.109 214.265L179.866 213.321C179.866 213.321 185.826 229.569 185.826 246.129Z" fill="#DE2C67"/>
<path fill-rule="evenodd" clip-rule="evenodd" d="M166.773 238.439C168.626 253.483 161.085 323.314 156.03 339.164L136.434 335.994C136.434 335.994 140.652 286.636 146.378 277.654C152.104 268.67 153.926 260.723 147.744 241.975C141.564 223.228 150.454 213.942 150.454 213.942C150.454 213.942 159.547 211.845 161.264 211.65C161.264 211.65 164.922 223.398 166.773 238.439Z" fill="#DE2C67"/>
<path fill-rule="evenodd" clip-rule="evenodd" d="M182.65 261.407L158.917 302.414L132.536 287.219L155.235 245.617L182.65 261.407Z" fill="#616161"/>
<path fill-rule="evenodd" clip-rule="evenodd" d="M179.866 262.488L158.771 299.072L135.32 285.514L155.5 248.401L179.866 262.488Z" fill="#E0CEC7"/>
<path fill-rule="evenodd" clip-rule="evenodd" d="M171.73 259.538L173.184 256.873L163.868 251.185L162.048 253.627L171.73 259.538Z" fill="#616161"/>
<path fill-rule="evenodd" clip-rule="evenodd" d="M170.872 288.493C170.872 288.493 169.776 288.498 169.294 288.27C169.294 288.27 168.452 287.788 167.834 287.479C167.637 287.384 167.465 287.303 167.346 287.264C166.855 287.094 165.723 286.871 164.659 286.141C163.595 285.411 159.821 281.099 159.821 281.099L161.602 278.424L162.909 275.686C162.909 275.686 170.832 276.19 171.905 276.755C172.009 276.814 172.111 276.872 172.201 276.934C173.062 277.499 173.46 278.279 173.878 278.628C174.03 278.756 175.461 280.135 175.411 280.723C175.343 281.539 174.959 282.077 174.462 282.347C174.462 282.347 174.256 283.938 173.46 284.679C173.46 284.679 173.319 286.153 172.066 286.799C172.066 286.799 171.752 288.278 170.872 288.493Z" fill="#EEA886"/>
<path fill-rule="evenodd" clip-rule="evenodd" d="M143.548 220.005C139.406 227.956 139.425 231.349 138.873 235.234C138.349 238.9 135.991 248.911 135.751 249.943C135.514 250.979 130.17 263.305 132.62 267.613C135.082 271.944 160.102 284.693 159.943 285.648C159.784 286.6 164.275 276.01 164.275 276.01C164.275 276.01 154.153 270.374 152.494 268.64C149.801 265.824 144.12 262.787 145.288 259.292C146.657 255.187 150.777 241.335 151.733 239.306C152.689 237.28 161.011 216.704 154.919 214.119C154.919 214.119 147.691 212.054 143.548 220.005Z" fill="#DE2C67"/>
<path fill-rule="evenodd" clip-rule="evenodd" d="M178.17 173.043C178.17 173.043 190.814 177.038 183.95 198.974C177.085 220.911 159.817 196.432 161.622 183.067C163.43 169.702 178.17 173.043 178.17 173.043Z" fill="#EEA987"/>
<path fill-rule="evenodd" clip-rule="evenodd" d="M185.642 185.595C185.642 185.595 179.227 191.884 168.495 192.67C168.495 192.67 164.367 197.503 164.051 199.4C164.051 199.4 154.474 183.09 166.246 173.312C178.019 163.535 189.971 181.567 185.642 185.595Z" fill="#222222"/>
<path fill-rule="evenodd" clip-rule="evenodd" d="M168.716 193.314C168.633 191.68 167.643 187.96 165.254 189.001C162.865 190.042 165.401 197.618 166.986 197.152C166.986 197.152 168.91 197.182 168.716 193.314Z" fill="#EEA987"/>
<path fill-rule="evenodd" clip-rule="evenodd" d="M177.082 207.767C177.005 208.623 176.918 209.567 176.841 210.536C176.841 210.536 170.978 210.192 167.059 201.627C167.315 202.001 171.611 208.199 177.082 207.767Z" fill="#A77860"/>
<path fill-rule="evenodd" clip-rule="evenodd" d="M225.527 164.319H237.22V162.092H225.527V164.319Z" fill="#FF6D31"/>
<path fill-rule="evenodd" clip-rule="evenodd" d="M358.284 284.595C358.284 284.595 366.588 297.934 365.97 309.994C365.349 322.052 368.98 335.219 370.228 347.816C371.619 361.861 377.309 395.107 377.516 402.62C377.722 410.131 376.633 434.118 376.633 434.118L365.239 434.383C365.239 434.383 355.672 376.259 353.193 370.328C350.716 364.399 338.425 322.116 338.013 317.371C337.6 312.627 358.284 284.595 358.284 284.595Z" fill="#222222"/>
<path fill-rule="evenodd" clip-rule="evenodd" d="M314.118 285.93C314.118 285.93 307.794 319.087 306.961 326.491C306.125 333.897 305.569 362.324 305.152 366.95C304.733 371.579 302.369 427.509 300.142 434.383H314.86C314.86 434.383 326.156 393.725 326.156 374.488C326.156 355.25 334.882 332.667 340.518 319.974C346.151 307.281 359.046 306.98 362.507 283.432C362.507 283.432 318.806 278.46 314.118 285.93Z" fill="#222222"/>
<mask id="mask3_59_2" style="mask-type:alpha" maskUnits="userSpaceOnUse" x="0" y="435" width="532" height="27">
<path d="M531.227 448.302C531.227 455.376 412.309 461.11 265.619 461.11C118.927 461.11 0.00976562 455.376 0.00976562 448.302C0.00976562 441.231 118.927 435.496 265.619 435.496C412.309 435.496 531.227 441.231 531.227 448.302Z" fill="white"/>
</mask>
<g mask="url(#mask3_59_2)">
<path d="M531.227 448.302C531.227 455.376 412.309 461.11 265.619 461.11C118.927 461.11 0.00976562 455.376 0.00976562 448.302C0.00976562 441.231 118.927 435.496 265.619 435.496C412.309 435.496 531.227 441.231 531.227 448.302Z" fill="#781B3A" fill-opacity="0.206922"/>
</g>
<path fill-rule="evenodd" clip-rule="evenodd" d="M176.371 444.962H178.372V435.493C178.372 435.493 182.302 438.117 184.764 441.747C187.229 445.375 190.617 445.068 195.778 444.834C200.939 444.603 200.708 442.519 200.247 439.585C199.783 436.652 194.547 435.724 192.851 435.261C191.159 434.799 187.31 428.154 186.073 426.535C184.386 424.329 183.494 422.211 183.494 422.211C183.494 422.211 182.533 418.275 177.755 422.211C172.981 426.151 174.368 433.718 174.907 434.412C175.446 435.108 176.371 444.962 176.371 444.962Z" fill="#222222"/>
<path fill-rule="evenodd" clip-rule="evenodd" d="M186.294 435.542C188.061 436.691 192.674 435.542 192.674 435.542C191.367 433.858 183.335 422.606 183.335 422.606C178.453 419.775 176.525 423.672 176.525 423.672C178.517 424.28 184.527 434.393 186.294 435.542Z" fill="#EEA886"/>
<path fill-rule="evenodd" clip-rule="evenodd" d="M150.354 446.014H151.57V438.938C151.57 438.938 153.735 441.241 154.723 444.619C155.711 448 159.251 449.001 164.651 448.845C170.052 448.689 170.126 446.485 169.671 443.184C169.215 439.883 164.651 438.152 164.651 438.152C162.599 436.266 157.503 428.447 157.503 428.447C157.503 428.447 154.231 427.542 151.666 429.684C149.1 431.825 149.898 436.661 149.972 437.917C150.049 439.176 150.354 446.014 150.354 446.014Z" fill="#222222"/>
<path fill-rule="evenodd" clip-rule="evenodd" d="M164.832 438.301L157.475 428.814L151.468 430.023C151.468 430.023 153.083 434.27 156.004 437.464C159.463 441.248 164.832 438.301 164.832 438.301Z" fill="#EEA886"/>
<mask id="mask4_59_2" style="mask-type:alpha" maskUnits="userSpaceOnUse" x="57" y="278" width="37" height="135">
<path d="M58.1512 412.039C66.432 406.259 76.1232 365.986 76.7014 342.001C76.9977 329.714 80.6577 324.595 83.8869 320.078C86.9737 315.761 89.6395 312.033 88.0865 303.472C85.1189 287.109 92.9215 280.047 93.0007 279.978L92.0974 278.956C91.7502 279.259 83.6245 286.543 86.7387 303.713C88.1898 311.711 85.7979 315.056 82.7698 319.293C79.5927 323.734 75.6384 329.264 75.3323 341.968C74.7118 367.71 64.8038 405.734 57.3635 410.926L58.1512 412.039Z" fill="white"/>
</mask>
<g mask="url(#mask4_59_2)">
<path fill-rule="evenodd" clip-rule="evenodd" d="M58.1512 412.039C66.432 406.259 76.1232 365.986 76.7014 342.001C76.9977 329.714 80.6577 324.595 83.8869 320.078C86.9737 315.761 89.6395 312.033 88.0865 303.472C85.1189 287.109 92.9215 280.047 93.0007 279.978L92.0974 278.956C91.7502 279.259 83.6245 286.543 86.7387 303.713C88.1898 311.711 85.7979 315.056 82.7698 319.293C79.5927 323.734 75.6384 329.264 75.3323 341.968C74.7118 367.71 64.8038 405.734 57.3635 410.926L58.1512 412.039Z" fill="url(#paint3_linear_59_2)"/>
</g>
<mask id="mask5_59_2" style="mask-type:alpha" maskUnits="userSpaceOnUse" x="12" y="334" width="65" height="81">
<path d="M26.6165 337.843C21.7688 335.184 16.5705 334.647 14.5249 336.595C12.9701 338.076 13.7031 340.613 14.592 342.48C16.2879 346.042 18.4325 348.24 20.3246 350.182C22.9553 352.878 25.0332 355.009 23.9795 359.146C23.7729 359.957 23.5346 360.777 23.2951 361.599C21.6234 367.346 20.0439 372.775 28.7982 376.729C30.8543 377.657 32.7384 378.401 34.4013 379.057C41.3278 381.789 45.904 383.592 50.8093 393.998C51.722 395.934 52.5247 397.763 53.3011 399.53C57.5353 409.174 60.091 414.995 69.3482 413.114C72.0016 412.575 73.7303 411.2 74.4866 409.027C76.4307 403.439 71.7787 393.659 67.6715 388.743C67.3707 388.379 60.31 379.73 61.0859 367.351C61.212 365.337 61.4186 363.483 61.6008 361.852C62.0833 357.523 62.4322 354.395 60.834 352.591C59.373 350.941 56.1746 350.193 50.4636 350.166C38.9958 350.113 34.4685 345.348 30.8308 341.521C29.3755 339.988 28.1185 338.665 26.6165 337.843ZM52.0629 400.08C51.2901 398.318 50.4907 396.498 49.586 394.578C44.9102 384.662 40.7684 383.028 33.9064 380.321C32.2299 379.66 30.3292 378.91 28.2435 377.971C18.4139 373.531 20.3169 366.99 21.9961 361.219C22.2308 360.41 22.4653 359.604 22.6683 358.81C23.5326 355.414 21.8719 353.711 19.3577 351.133C17.4893 349.218 15.1636 346.834 13.371 343.066C11.4092 338.946 12.409 336.737 13.5936 335.609C16.0871 333.233 21.8368 333.669 27.2652 336.648C28.9519 337.573 30.3402 339.035 31.8099 340.582C35.2706 344.222 39.5772 348.754 50.47 348.807C56.6812 348.835 60.083 349.696 61.8449 351.686C63.8446 353.944 63.4678 357.323 62.946 362.002C62.7654 363.619 62.5608 365.456 62.4369 367.437C61.6959 379.257 68.6409 387.787 68.7095 387.871C72.8588 392.833 77.9706 403.136 75.764 409.474C74.8394 412.133 72.7711 413.806 69.6167 414.448C68.36 414.703 67.2117 414.823 66.156 414.823C58.5371 414.823 55.7491 408.474 52.0629 400.08Z" fill="white"/>
</mask>
<g mask="url(#mask5_59_2)">
<path fill-rule="evenodd" clip-rule="evenodd" d="M26.6165 337.843C21.7688 335.184 16.5705 334.647 14.5249 336.595C12.9701 338.076 13.7031 340.613 14.592 342.48C16.2879 346.042 18.4325 348.24 20.3246 350.182C22.9553 352.878 25.0332 355.009 23.9795 359.146C23.7729 359.957 23.5346 360.777 23.2951 361.599C21.6234 367.346 20.0439 372.775 28.7982 376.729C30.8543 377.657 32.7384 378.401 34.4013 379.057C41.3278 381.789 45.904 383.592 50.8093 393.998C51.722 395.934 52.5247 397.763 53.3011 399.53C57.5353 409.174 60.091 414.995 69.3482 413.114C72.0016 412.575 73.7303 411.2 74.4866 409.027C76.4307 403.439 71.7787 393.659 67.6715 388.743C67.3707 388.379 60.31 379.73 61.0859 367.351C61.212 365.337 61.4186 363.483 61.6008 361.852C62.0833 357.523 62.4322 354.395 60.834 352.591C59.373 350.941 56.1746 350.193 50.4636 350.166C38.9958 350.113 34.4685 345.348 30.8308 341.521C29.3755 339.988 28.1185 338.665 26.6165 337.843ZM52.0629 400.08C51.2901 398.318 50.4907 396.498 49.586 394.578C44.9102 384.662 40.7684 383.028 33.9064 380.321C32.2299 379.66 30.3292 378.91 28.2435 377.971C18.4139 373.531 20.3169 366.99 21.9961 361.219C22.2308 360.41 22.4653 359.604 22.6683 358.81C23.5326 355.414 21.8719 353.711 19.3577 351.133C17.4893 349.218 15.1636 346.834 13.371 343.066C11.4092 338.946 12.409 336.737 13.5936 335.609C16.0871 333.233 21.8368 333.669 27.2652 336.648C28.9519 337.573 30.3402 339.035 31.8099 340.582C35.2706 344.222 39.5772 348.754 50.47 348.807C56.6812 348.835 60.083 349.696 61.8449 351.686C63.8446 353.944 63.4678 357.323 62.946 362.002C62.7654 363.619 62.5608 365.456 62.4369 367.437C61.6959 379.257 68.6409 387.787 68.7095 387.871C72.8588 392.833 77.9706 403.136 75.764 409.474C74.8394 412.133 72.7711 413.806 69.6167 414.448C68.36 414.703 67.2117 414.823 66.156 414.823C58.5371 414.823 55.7491 408.474 52.0629 400.08Z" fill="url(#paint4_linear_59_2)"/>
</g>
<mask id="mask6_59_2" style="mask-type:alpha" maskUnits="userSpaceOnUse" x="22" y="344" width="49" height="79">
<path d="M69.3807 422.619L70.7274 422.549C70.661 421.267 68.9622 391.099 56.9866 382.271C43.8482 372.584 39.7061 362.173 37.7335 355.184C35.4086 346.953 23.5768 344.751 23.0743 344.662L22.8398 346.005C22.9545 346.028 34.3441 348.148 36.4365 355.561C38.4641 362.742 42.7178 373.437 56.1921 383.371C67.6542 391.823 69.3647 422.312 69.3807 422.619Z" fill="white"/>
</mask>
<g mask="url(#mask6_59_2)">
<path fill-rule="evenodd" clip-rule="evenodd" d="M69.3807 422.619L70.7274 422.549C70.661 421.267 68.9622 391.099 56.9866 382.271C43.8482 372.584 39.7061 362.173 37.7335 355.184C35.4086 346.953 23.5768 344.751 23.0743 344.662L22.8398 346.005C22.9545 346.028 34.3441 348.148 36.4365 355.561C38.4641 362.742 42.7178 373.437 56.1921 383.371C67.6542 391.823 69.3647 422.312 69.3807 422.619Z" fill="url(#paint5_linear_59_2)"/>
</g>
<mask id="mask7_59_2" style="mask-type:alpha" maskUnits="userSpaceOnUse" x="56" y="239" width="74" height="191">
<path d="M109.212 377.223C118.355 371.245 114.241 364.723 109.479 357.168C105.733 351.227 101.487 344.493 103.982 337.413C106.899 329.139 111.222 324.108 115.038 319.671C121.431 312.239 125.653 307.327 117.2 292.492C110.042 279.928 117.085 269.156 122.744 260.498C126.215 255.187 129.214 250.597 128.171 246.91C127.584 244.85 125.737 243.103 122.518 241.574C121.861 241.26 121.191 241.263 120.467 241.576C115.634 243.667 111.196 257.608 111.152 257.75L111.117 257.861L111.045 257.955C106.025 264.547 100.125 264.119 95.3842 263.772C92.5514 263.566 90.3141 263.403 88.9658 264.738C87.6378 266.051 87.1482 268.928 87.4687 273.534C88.6964 291.162 78.8177 294.755 70.8801 297.64C66.4206 299.261 62.5692 300.663 61.2508 304.115C59.8437 307.799 61.3743 313.544 66.0677 322.192C77.2735 342.839 71.0017 347.753 64.9359 352.506C59.8625 356.482 55.0701 360.236 60.7598 373.838C66.6001 387.802 66.3259 402.861 66.1253 413.859C65.9883 421.364 65.8805 427.292 67.9652 428.325C69.1853 428.927 71.519 427.908 74.9031 425.293C76.2596 422.364 92.3055 388.274 109.212 377.223ZM67.3551 429.541C64.4969 428.128 64.6006 422.441 64.7573 413.834C64.9558 402.959 65.2271 388.063 59.4966 374.36C53.4091 359.806 58.8383 355.552 64.0889 351.44C69.9694 346.831 75.5238 342.48 64.8635 322.837C59.9675 313.816 58.4132 307.713 59.9717 303.632C61.5121 299.6 65.8344 298.028 70.4101 296.365C78.3086 293.492 87.2605 290.238 86.1042 273.628C85.7495 268.536 86.352 265.404 88.0003 263.775C89.791 262.003 92.4296 262.195 95.4843 262.417C100.1 262.753 105.329 263.133 109.883 257.228C110.357 255.753 114.711 242.584 119.919 240.33C121.015 239.855 122.088 239.861 123.108 240.346C126.704 242.054 128.789 244.081 129.488 246.544C130.7 250.822 127.545 255.648 123.89 261.237C118.149 270.022 111.642 279.976 118.391 291.823C127.313 307.485 122.602 312.969 116.078 320.554C112.341 324.902 108.105 329.828 105.273 337.863C102.996 344.327 106.881 350.488 110.638 356.446C115.351 363.921 120.224 371.651 109.963 378.359C92.9988 389.448 76.2451 425.645 76.078 426.009L76.0087 426.159L75.8776 426.262C72.7522 428.697 70.4772 429.857 68.7639 429.857C68.2455 429.857 67.7788 429.752 67.3551 429.541Z" fill="white"/>
</mask>
<g mask="url(#mask7_59_2)">
<path fill-rule="evenodd" clip-rule="evenodd" d="M109.212 377.223C118.355 371.245 114.241 364.723 109.479 357.168C105.733 351.227 101.487 344.493 103.982 337.413C106.899 329.139 111.222 324.108 115.038 319.671C121.431 312.239 125.653 307.327 117.2 292.492C110.042 279.928 117.085 269.156 122.744 260.498C126.215 255.187 129.214 250.597 128.171 246.91C127.584 244.85 125.737 243.103 122.518 241.574C121.861 241.26 121.191 241.263 120.467 241.576C115.634 243.667 111.196 257.608 111.152 257.75L111.117 257.861L111.045 257.955C106.025 264.547 100.125 264.119 95.3842 263.772C92.5514 263.566 90.3141 263.403 88.9658 264.738C87.6378 266.051 87.1482 268.928 87.4687 273.534C88.6964 291.162 78.8177 294.755 70.8801 297.64C66.4206 299.261 62.5692 300.663 61.2508 304.115C59.8437 307.799 61.3743 313.544 66.0677 322.192C77.2735 342.839 71.0017 347.753 64.9359 352.506C59.8625 356.482 55.0701 360.236 60.7598 373.838C66.6001 387.802 66.3259 402.861 66.1253 413.859C65.9883 421.364 65.8805 427.292 67.9652 428.325C69.1853 428.927 71.519 427.908 74.9031 425.293C76.2596 422.364 92.3055 388.274 109.212 377.223ZM67.3551 429.541C64.4969 428.128 64.6006 422.441 64.7573 413.834C64.9558 402.959 65.2271 388.063 59.4966 374.36C53.4091 359.806 58.8383 355.552 64.0889 351.44C69.9694 346.831 75.5238 342.48 64.8635 322.837C59.9675 313.816 58.4132 307.713 59.9717 303.632C61.5121 299.6 65.8344 298.028 70.4101 296.365C78.3086 293.492 87.2605 290.238 86.1042 273.628C85.7495 268.536 86.352 265.404 88.0003 263.775C89.791 262.003 92.4296 262.195 95.4843 262.417C100.1 262.753 105.329 263.133 109.883 257.228C110.357 255.753 114.711 242.584 119.919 240.33C121.015 239.855 122.088 239.861 123.108 240.346C126.704 242.054 128.789 244.081 129.488 246.544C130.7 250.822 127.545 255.648 123.89 261.237C118.149 270.022 111.642 279.976 118.391 291.823C127.313 307.485 122.602 312.969 116.078 320.554C112.341 324.902 108.105 329.828 105.273 337.863C102.996 344.327 106.881 350.488 110.638 356.446C115.351 363.921 120.224 371.651 109.963 378.359C92.9988 389.448 76.2451 425.645 76.078 426.009L76.0087 426.159L75.8776 426.262C72.7522 428.697 70.4772 429.857 68.7639 429.857C68.2455 429.857 67.7788 429.752 67.3551 429.541Z" fill="url(#paint6_linear_59_2)"/>
</g>
<mask id="mask8_59_2" style="mask-type:alpha" maskUnits="userSpaceOnUse" x="31" y="271" width="57" height="149">
<path d="M41.0236 271.505C49.6071 268.558 47.8238 285.132 51.4508 297.395C55.0777 309.658 91.7996 302.744 76.3854 333.452C60.9714 364.159 95.8797 343.719 85.4526 370.516C75.0254 397.313 84.5458 425.972 73.2118 418.683C61.8779 411.394 66.8445 377.65 55.0574 373.639C43.2701 369.628 41.3467 364.952 53.0171 354.053C64.6878 343.151 22.4361 332.33 32.8632 310.32C43.2904 288.31 31.1068 274.912 41.0236 271.505Z" fill="white"/>
</mask>
<g mask="url(#mask8_59_2)">
<path fill-rule="evenodd" clip-rule="evenodd" d="M41.0236 271.505C49.6071 268.558 47.8238 285.132 51.4508 297.395C55.0777 309.658 91.7996 302.744 76.3854 333.452C60.9714 364.159 95.8797 343.719 85.4526 370.516C75.0254 397.313 84.5458 425.972 73.2118 418.683C61.8779 411.394 66.8445 377.65 55.0574 373.639C43.2701 369.628 41.3467 364.952 53.0171 354.053C64.6878 343.151 22.4361 332.33 32.8632 310.32C43.2904 288.31 31.1068 274.912 41.0236 271.505Z" fill="url(#paint7_linear_59_2)"/>
</g>
<path fill-rule="evenodd" clip-rule="evenodd" d="M69.2071 417.121C70.3039 412.51 79.6718 371.926 70.9307 367.019C63.2268 362.696 63.4165 345.879 64.6184 329.997C65.6822 315.94 47.465 309.37 46.6889 309.096L46.2267 310.388C46.4069 310.45 64.2248 316.883 63.2401 329.894C62.006 346.204 61.8736 363.51 70.2497 368.211C76.8866 371.938 70.7759 404.555 67.8615 416.808L69.2071 417.121Z" fill="white"/>
<mask id="mask9_59_2" style="mask-type:alpha" maskUnits="userSpaceOnUse" x="50" y="402" width="52" height="48">
<path d="M101.91 402.573L89.6813 449.346H62.3532L50.1247 402.573H101.91Z" fill="white"/>
</mask>
<g mask="url(#mask9_59_2)">
<path fill-rule="evenodd" clip-rule="evenodd" d="M101.91 402.573L89.6813 449.346H62.3532L50.1247 402.573H101.91Z" fill="url(#paint8_linear_59_2)"/>
</g>
<mask id="mask10_59_2" style="mask-type:alpha" maskUnits="userSpaceOnUse" x="50" y="402" width="52" height="48">
<path d="M101.91 402.573C101.91 402.573 74.9892 407.668 74.9892 449.346H62.3532L50.1247 402.573H101.91Z" fill="white"/>
</mask>
<g mask="url(#mask10_59_2)">
<path fill-rule="evenodd" clip-rule="evenodd" d="M101.91 402.573C101.91 402.573 74.9892 407.668 74.9892 449.346H62.3532L50.1247 402.573H101.91Z" fill="url(#paint9_linear_59_2)"/>
</g>
<path fill-rule="evenodd" clip-rule="evenodd" d="M380.716 1.91045C380.716 1.91045 387.566 5.68122 385.392 14.9537C383.216 24.2256 382.389 25.4498 384.156 29.1968C385.923 32.9437 387.477 48.6443 385.592 51.5166C383.708 54.3889 364.606 37.5061 362.485 23.9998C360.361 10.4935 365.139 4.75724 366.835 2.61619C368.53 0.475414 374.677 -1.53253 380.716 1.91045Z" fill="#222222"/>
<path fill-rule="evenodd" clip-rule="evenodd" d="M389.792 51.0328L378.704 55.7371C378.704 55.7371 368.514 30.2868 377.055 33.1284C385.572 35.9612 389.402 41.2869 389.792 51.0328Z" fill="#EB4747"/>
<path fill-rule="evenodd" clip-rule="evenodd" d="M378.387 33.3441C378.387 33.3441 383.463 41.6506 381.576 42.2712C379.685 42.8912 369.736 40.7938 365.848 32.9462C365.848 32.9462 372.379 30.1044 378.387 33.3441Z" fill="#EEA886"/>
<path fill-rule="evenodd" clip-rule="evenodd" d="M377.771 37.0935C377.771 37.0935 373.194 38.971 369.051 32.791C369.051 32.791 370.165 25.7738 367.811 21.7146C365.457 17.6569 378.098 26.5805 378.098 26.5805C378.098 26.5805 377.895 27.4172 377.682 28.6525C377.576 29.2849 377.464 30.0201 377.378 30.8005C377.306 31.4508 377.251 32.1338 377.229 32.8141C377.174 34.3924 377.292 35.9589 377.771 37.0935Z" fill="#EEA886"/>
<path fill-rule="evenodd" clip-rule="evenodd" d="M352.903 53.0288L364.324 55.7372C364.324 55.7372 373.386 37.8785 365.225 34.6176C356.623 31.1806 350.841 43.287 352.903 53.0288Z" fill="#EB4747"/>
<path fill-rule="evenodd" clip-rule="evenodd" d="M379.448 2.74826C379.448 2.74826 389.661 6.45605 383.188 23.8919C376.713 41.3275 363.5 20.9155 365.494 10.2012C367.491 -0.512607 379.448 2.74826 379.448 2.74826Z" fill="#EEA987"/>
<path fill-rule="evenodd" clip-rule="evenodd" d="M385.07 13.7211C385.07 13.7211 379.695 18.4966 371.07 18.7193C371.07 18.7193 369.054 23.6103 368.728 25.1114C368.728 25.1114 360.205 10.5478 370.003 3.19144C379.802 -4.16468 388.687 10.67 385.07 13.7211Z" fill="#222222"/>
<path fill-rule="evenodd" clip-rule="evenodd" d="M371.973 19.3269C371.968 18.0224 371.341 15.0227 369.47 15.7603C367.599 16.4979 369.275 22.6261 370.508 22.3159C370.508 22.3159 371.987 22.4138 371.973 19.3269Z" fill="#EEA987"/>
<path fill-rule="evenodd" clip-rule="evenodd" d="M376.853 32.3502C372.169 31.1294 370.358 26.9225 370.303 26.7819C374.112 31.4198 376.985 30.7536 376.985 30.7536C376.916 31.3587 376.91 31.7366 376.853 32.3502Z" fill="#A77860"/>
<path fill-rule="evenodd" clip-rule="evenodd" d="M365.848 429.571C365.848 429.571 366.655 435.437 366.754 436.319C366.856 437.201 375.712 435.798 375.712 435.798L376.428 428.816C376.428 428.816 366.955 428.744 365.848 429.571Z" fill="#666666"/>
<path fill-rule="evenodd" clip-rule="evenodd" d="M366.302 435.329C366.302 435.329 363.473 438.798 360.739 440.312C358.004 441.825 353.706 442.424 352.088 443.992C350.922 445.122 347.837 449.989 359.195 449.892C370.555 449.793 376.033 450.579 377.249 448.711C378.468 446.845 375.489 434.94 375.489 434.94C375.489 434.94 372.799 435.928 366.302 435.329Z" fill="#222222"/>
<path fill-rule="evenodd" clip-rule="evenodd" d="M301.256 429.571C301.256 429.571 302.103 435.437 302.207 436.319C302.314 437.201 311.638 435.798 311.638 435.798L312.392 428.816C312.392 428.816 302.419 428.744 301.256 429.571Z" fill="#666666"/>
<path fill-rule="evenodd" clip-rule="evenodd" d="M302.35 435.33C302.35 435.33 299.544 438.812 296.827 440.331C294.113 441.85 284.124 443.098 282.517 444.669C281.357 445.806 279.431 450.371 295.295 449.946C306.569 449.641 312.008 450.636 313.215 448.761C314.425 446.888 311.468 434.94 311.468 434.94C311.468 434.94 308.952 436 302.35 435.33Z" fill="#222222"/>
<defs>
<linearGradient id="paint0_linear_59_2" x1="293.922" y1="181.66" x2="159.066" y2="64.5757" gradientUnits="userSpaceOnUse">
<stop stop-color="#FF6D31"/>
<stop offset="1" stop-color="#FB0389"/>
</linearGradient>
<linearGradient id="paint1_linear_59_2" x1="491.331" y1="303.849" x2="331.794" y2="141.164" gradientUnits="userSpaceOnUse">
<stop stop-color="#FF6D31"/>
<stop offset="1" stop-color="#FB0389"/>
</linearGradient>
<linearGradient id="paint2_linear_59_2" x1="418.846" y1="82.794" x2="326.765" y2="10.6781" gradientUnits="userSpaceOnUse">
<stop stop-color="#FF6D31"/>
<stop offset="1" stop-color="#FB0389"/>
</linearGradient>
<linearGradient id="paint3_linear_59_2" x1="93.0007" y1="345.499" x2="57.3634" y2="345.499" gradientUnits="userSpaceOnUse">
<stop stop-color="#2F76A0"/>
<stop offset="1" stop-color="#47C8B6"/>
</linearGradient>
<linearGradient id="paint4_linear_59_2" x1="76.2958" y1="374.453" x2="12.26" y2="374.453" gradientUnits="userSpaceOnUse">
<stop stop-color="#2F76A0"/>
<stop offset="1" stop-color="#47C8B6"/>
</linearGradient>
<linearGradient id="paint5_linear_59_2" x1="70.7273" y1="383.642" x2="22.8398" y2="383.642" gradientUnits="userSpaceOnUse">
<stop stop-color="#2F76A0"/>
<stop offset="1" stop-color="#47C8B6"/>
</linearGradient>
<linearGradient id="paint6_linear_59_2" x1="129.75" y1="334.917" x2="56.806" y2="334.917" gradientUnits="userSpaceOnUse">
<stop stop-color="#2F76A0"/>
<stop offset="1" stop-color="#47C8B6"/>
</linearGradient>
<linearGradient id="paint7_linear_59_2" x1="63.2023" y1="414.11" x2="24.5864" y2="298.052" gradientUnits="userSpaceOnUse">
<stop stop-color="#2F76A0"/>
<stop offset="1" stop-color="#47C8B6"/>
</linearGradient>
<linearGradient id="paint8_linear_59_2" x1="54.1976" y1="484.247" x2="71.5784" y2="408.706" gradientUnits="userSpaceOnUse">
<stop stop-color="#C8C4C1"/>
<stop offset="1" stop-color="#FFF6DE"/>
</linearGradient>
<linearGradient id="paint9_linear_59_2" x1="50.1247" y1="425.958" x2="101.91" y2="425.958" gradientUnits="userSpaceOnUse">
<stop stop-color="#C8C4C1"/>
<stop offset="1" stop-color="#FFF6DE"/>
</linearGradient>
</defs>
</svg>
