<svg width="202" height="75" viewBox="0 0 202 75" fill="none" xmlns="http://www.w3.org/2000/svg">
<path d="M21 15H202V60H21L32 47L23.5 36.5L32 27L21 15Z" fill="#999999"/>
<path d="M20.1896 60.6165C29.8331 60.6165 36.8565 55.0902 36.8345 47.4723C36.8565 41.8359 33.3338 37.7848 27.0149 36.8821V36.5298C31.9027 35.473 35.1832 31.8402 35.1612 26.7763C35.1832 19.907 29.3267 14.2926 20.3217 14.2926C11.5589 14.2926 4.7777 19.5107 4.60156 27.0625H12.4616C12.5938 23.2756 16.1165 20.9197 20.2777 20.9197C24.483 20.9197 27.2791 23.4737 27.2571 27.2607C27.2791 31.2017 24.0206 33.8217 19.353 33.8217H15.3679V40.1186H19.353C25.0554 40.1186 28.446 42.9808 28.424 47.054C28.446 51.0391 24.9893 53.7692 20.1676 53.7692C15.6321 53.7692 12.1314 51.4134 11.9332 47.7365H3.65483C3.875 55.3544 10.6783 60.6165 20.1896 60.6165Z" fill="#222222"/>
<path d="M57.1985 42H58.8445V38.1648H61.0817C63.6119 38.1648 64.8636 36.636 64.8636 34.6225C64.8636 32.6143 63.6225 31.0909 61.087 31.0909H57.1985V42ZM58.8445 36.7692V32.5025H60.9112C62.5412 32.5025 63.207 33.3867 63.207 34.6225C63.207 35.8583 62.5412 36.7692 60.9325 36.7692H58.8445ZM71.8483 38.6069C71.8536 39.9972 70.8202 40.6577 69.9253 40.6577C68.9399 40.6577 68.2581 39.9439 68.2581 38.8306V33.8182H66.6654V39.0224C66.6654 41.0518 67.7787 42.1065 69.3501 42.1065C70.5805 42.1065 71.4168 41.4567 71.795 40.5831H71.8802V42H73.4463V33.8182H71.8483V38.6069ZM75.7141 42H77.2695V40.7269H77.4027C77.6903 41.2489 78.2763 42.1598 79.7678 42.1598C81.7493 42.1598 83.1875 40.5724 83.1875 37.9251C83.1875 35.2724 81.728 33.7116 79.7518 33.7116C78.2337 33.7116 77.685 34.6385 77.4027 35.1445H77.3068V31.0909H75.7141V42ZM77.2749 37.9091C77.2749 36.1992 78.0206 35.0646 79.4109 35.0646C80.8544 35.0646 81.5788 36.2844 81.5788 37.9091C81.5788 39.5497 80.8331 40.8015 79.4109 40.8015C78.0419 40.8015 77.2749 39.6296 77.2749 37.9091ZM86.5686 31.0909H84.9759V42H86.5686V31.0909ZM88.7113 42H90.304V33.8182H88.7113V42ZM89.5156 32.5558C90.0643 32.5558 90.5224 32.1296 90.5224 31.6076C90.5224 31.0856 90.0643 30.6541 89.5156 30.6541C88.9616 30.6541 88.5089 31.0856 88.5089 31.6076C88.5089 32.1296 88.9616 32.5558 89.5156 32.5558ZM98.5777 35.8157C98.2474 34.5426 97.2513 33.7116 95.4829 33.7116C93.6345 33.7116 92.3241 34.6864 92.3241 36.1353C92.3241 37.2965 93.0273 38.0689 94.5613 38.4098L95.9463 38.7134C96.7346 38.8892 97.1022 39.2408 97.1022 39.7521C97.1022 40.386 96.4257 40.8814 95.3817 40.8814C94.4282 40.8814 93.8156 40.4712 93.6238 39.6669L92.0844 39.9013C92.3508 41.3501 93.5546 42.1651 95.3923 42.1651C97.3685 42.1651 98.7375 41.1158 98.7375 39.6349C98.7375 38.479 98.0024 37.7653 96.5003 37.419L95.2006 37.1207C94.3003 36.9077 93.9115 36.604 93.9168 36.0501C93.9115 35.4215 94.5933 34.9741 95.4988 34.9741C96.4896 34.9741 96.9477 35.5227 97.1341 36.0714L98.5777 35.8157ZM102.081 37.142C102.081 35.837 102.907 35.0913 104.042 35.0913C105.139 35.0913 105.794 35.7891 105.794 36.9876V42H107.387V36.7958C107.387 34.7557 106.268 33.7116 104.585 33.7116C103.312 33.7116 102.545 34.2656 102.161 35.1499H102.06V31.0909H100.489V42H102.081V37.142Z" fill="#222222"/>
</svg>
