<svg width="202" height="75" viewBox="0 0 202 75" fill="none" xmlns="http://www.w3.org/2000/svg">
<path opacity="0.4" d="M21 15H202V60H21L32 47L23.5 36.5L32 27L21 15Z" fill="url(#paint0_linear_894_4)"/>
<path d="M20.1896 60.6165C29.8331 60.6165 36.8565 55.0902 36.8345 47.4723C36.8565 41.8359 33.3338 37.7848 27.0149 36.8821V36.5298C31.9027 35.473 35.1832 31.8402 35.1612 26.7763C35.1832 19.907 29.3267 14.2926 20.3217 14.2926C11.5589 14.2926 4.7777 19.5107 4.60156 27.0625H12.4616C12.5938 23.2756 16.1165 20.9197 20.2777 20.9197C24.483 20.9197 27.2791 23.4737 27.2571 27.2607C27.2791 31.2017 24.0206 33.8217 19.353 33.8217H15.3679V40.1186H19.353C25.0554 40.1186 28.446 42.9808 28.424 47.054C28.446 51.0391 24.9893 53.7692 20.1676 53.7692C15.6321 53.7692 12.1314 51.4134 11.9332 47.7365H3.65483C3.875 55.3544 10.6783 60.6165 20.1896 60.6165Z" fill="url(#paint1_linear_894_4)"/>
<path d="M57.1985 42V31.0909H61.087C61.9322 31.0909 62.6335 31.2454 63.1911 31.5543C63.7521 31.8633 64.1712 32.2841 64.4482 32.8168C64.7251 33.3494 64.8636 33.9513 64.8636 34.6225C64.8636 35.2937 64.7234 35.8974 64.4428 36.4336C64.1658 36.9663 63.7468 37.3888 63.1857 37.7013C62.6282 38.0103 61.9268 38.1648 61.0817 38.1648H58.8445V42H57.1985ZM58.8445 36.7692H60.9325C61.7386 36.7692 62.3192 36.5668 62.6744 36.1619C63.0295 35.7536 63.207 35.2404 63.207 34.6225C63.207 34.0046 63.0277 33.4968 62.669 33.0991C62.3139 32.7013 61.728 32.5025 60.9112 32.5025H58.8445V36.7692ZM71.8483 38.6069V33.8182H73.4463V42H71.8802V40.5831H71.795C71.6068 41.0199 71.305 41.3839 70.8895 41.6751C70.4775 41.9627 69.9644 42.1065 69.3501 42.1065C68.5653 42.1065 67.9207 41.8473 67.4165 41.3288C66.9157 40.8068 66.6654 40.038 66.6654 39.0224V33.8182H68.2581V38.8306C68.2581 39.3881 68.4126 39.832 68.7215 40.1623C69.0305 40.4925 69.4317 40.6577 69.9253 40.6577C70.2236 40.6577 70.5202 40.5831 70.8149 40.4339C71.1132 40.2848 71.36 40.0593 71.5553 39.7575C71.7542 39.4521 71.8518 39.0685 71.8483 38.6069ZM75.7141 42V31.0909H77.3068V35.1445H77.4027C77.4986 34.9741 77.6317 34.777 77.8022 34.5533C77.9762 34.3295 78.2177 34.1342 78.5266 33.9673C78.8391 33.7969 79.2475 33.7116 79.7518 33.7116C80.4123 33.7116 81 33.8786 81.5149 34.2124C82.0334 34.5462 82.4418 35.0273 82.7401 35.6559C83.0384 36.2844 83.1875 37.0408 83.1875 37.9251C83.1875 38.8058 83.0401 39.5639 82.7454 40.1996C82.4506 40.8317 82.0458 41.3164 81.5309 41.6538C81.016 41.9911 80.4283 42.1598 79.7678 42.1598C79.2706 42.1598 78.8658 42.0763 78.5533 41.9094C78.2408 41.7425 77.994 41.5472 77.8129 41.3235C77.6353 41.0998 77.4986 40.9009 77.4027 40.7269H77.2695V42H75.7141ZM77.2749 37.9091C77.2749 38.7685 77.4595 39.4663 77.8288 40.0025C78.1982 40.5352 78.7255 40.8015 79.4109 40.8015C79.8867 40.8015 80.2844 40.6754 80.604 40.4233C80.9272 40.1676 81.1705 39.8214 81.3338 39.3846C81.4972 38.9478 81.5788 38.456 81.5788 37.9091C81.5788 37.3658 81.4972 36.881 81.3338 36.4549C81.174 36.0252 80.9343 35.6861 80.6147 35.4375C80.2951 35.1889 79.8938 35.0646 79.4109 35.0646C78.7148 35.0646 78.1839 35.3256 77.8182 35.8477C77.456 36.3661 77.2749 37.0533 77.2749 37.9091ZM86.5686 31.0909V42H84.9759V31.0909H86.5686ZM88.7113 42V33.8182H90.304V42H88.7113ZM89.5156 32.5558C89.2386 32.5558 89.0007 32.4634 88.8018 32.2788C88.6065 32.0906 88.5089 31.8668 88.5089 31.6076C88.5089 31.3448 88.6065 31.1211 88.8018 30.9364C89.0007 30.7482 89.2386 30.6541 89.5156 30.6541C89.7891 30.6541 90.0252 30.7482 90.2241 30.9364C90.4229 31.1211 90.5224 31.3448 90.5224 31.6076C90.5224 31.8668 90.4229 32.0906 90.2241 32.2788C90.0252 32.4634 89.7891 32.5558 89.5156 32.5558ZM98.5777 35.8157L97.1341 36.0714C97.0418 35.7979 96.8696 35.5476 96.6175 35.3203C96.3689 35.0895 95.996 34.9741 95.4988 34.9741C95.0479 34.9741 94.6697 35.0753 94.3643 35.2777C94.0624 35.4766 93.9133 35.734 93.9168 36.0501C93.9133 36.3271 94.0127 36.549 94.2151 36.7159C94.4211 36.8793 94.7496 37.0142 95.2006 37.1207L96.5003 37.419C97.9917 37.7635 98.7375 38.5021 98.7375 39.6349C98.7375 40.1286 98.5954 40.5653 98.3113 40.9453C98.0308 41.3253 97.6384 41.6236 97.1341 41.8402C96.6334 42.0568 96.0528 42.1651 95.3923 42.1651C94.4726 42.1651 93.7251 41.9698 93.1498 41.5792C92.5745 41.185 92.2194 40.6257 92.0844 39.9013L93.6238 39.6669C93.8156 40.4766 94.4015 40.8814 95.3817 40.8814C95.9037 40.8814 96.3209 40.7731 96.6334 40.5565C96.9459 40.3363 97.1022 40.0682 97.1022 39.7521C97.1022 39.2301 96.7169 38.8839 95.9463 38.7134L94.5613 38.4098C93.7943 38.2393 93.2297 37.9624 92.8675 37.5788C92.5052 37.1953 92.3241 36.7141 92.3241 36.1353C92.3241 35.6523 92.4591 35.2298 92.729 34.8675C92.9988 34.5018 93.3717 34.2177 93.8476 34.0153C94.3234 33.8129 94.8685 33.7116 95.4829 33.7116C96.3671 33.7116 97.0631 33.9034 97.5709 34.2869C98.0787 34.6705 98.4143 35.18 98.5777 35.8157ZM102.081 37.142V42H100.489V31.0909H102.06V35.1499H102.161C102.353 34.706 102.646 34.3562 103.04 34.1005C103.434 33.8413 103.949 33.7116 104.585 33.7116C105.426 33.7116 106.103 33.9709 106.614 34.4893C107.129 35.0078 107.387 35.7766 107.387 36.7958V42H105.794V36.9876C105.794 36.3874 105.64 35.9222 105.331 35.592C105.022 35.2582 104.592 35.0913 104.042 35.0913C103.473 35.0913 103.005 35.2706 102.635 35.6293C102.266 35.9844 102.081 36.4886 102.081 37.142Z" fill="#DE2C4C"/>
<defs>
<linearGradient id="paint0_linear_894_4" x1="21" y1="15" x2="199.546" y2="68.2301" gradientUnits="userSpaceOnUse">
<stop stop-color="#FB0389"/>
<stop offset="1" stop-color="#FF6D31"/>
</linearGradient>
<linearGradient id="paint1_linear_894_4" x1="0" y1="0" x2="43.9668" y2="1.7815" gradientUnits="userSpaceOnUse">
<stop stop-color="#FB0389"/>
<stop offset="1" stop-color="#FF6D31"/>
</linearGradient>
</defs>
</svg>
