<svg width="202" height="75" viewBox="0 0 202 75" fill="none" xmlns="http://www.w3.org/2000/svg">
<path opacity="0.4" d="M20 15H202V60H20V15Z" fill="url(#paint0_linear_894_0)"/>
<path d="M22.3473 14.9091H14.5753L3.36861 22.1087V29.5945L13.9148 22.8572H14.179V60H22.3473V14.9091Z" fill="url(#paint1_linear_894_0)"/>
<path d="M61.4386 32.0909V39.8253C61.4332 41.0824 60.8473 41.7536 59.8033 41.7536C58.8391 41.7536 58.168 41.1783 58.1626 40.2727H56.5273C56.5273 42.1158 57.9123 43.1491 59.7607 43.1491C61.7635 43.1491 63.0739 41.924 63.0792 39.8253V32.0909H61.4386ZM68.7934 43.1651C71.0999 43.1651 72.6073 41.4766 72.6073 38.9464C72.6073 36.4002 71.0999 34.7116 68.7934 34.7116C66.4869 34.7116 64.9795 36.4002 64.9795 38.9464C64.9795 41.4766 66.4869 43.1651 68.7934 43.1651ZM68.7987 41.8281C67.2913 41.8281 66.5882 40.5124 66.5882 38.9411C66.5882 37.375 67.2913 36.0433 68.7987 36.0433C70.2955 36.0433 70.9987 37.375 70.9987 38.9411C70.9987 40.5124 70.2955 41.8281 68.7987 41.8281ZM74.513 43H76.0684V41.7269H76.2015C76.4892 42.2489 77.0751 43.1598 78.5666 43.1598C80.5481 43.1598 81.9863 41.5724 81.9863 38.9251C81.9863 36.2724 80.5268 34.7116 78.5506 34.7116C77.0325 34.7116 76.4838 35.6385 76.2015 36.1445H76.1056V32.0909H74.513V43ZM76.0737 38.9091C76.0737 37.1992 76.8194 36.0646 78.2097 36.0646C79.6532 36.0646 80.3777 37.2844 80.3777 38.9091C80.3777 40.5497 79.6319 41.8015 78.2097 41.8015C76.8407 41.8015 76.0737 40.6296 76.0737 38.9091ZM91.4039 43C94.7278 43 96.6507 40.9386 96.6507 37.5295C96.6507 34.1364 94.7278 32.0909 91.5158 32.0909H87.8723V43H91.4039ZM89.5183 41.5618V33.5291H91.4146C93.801 33.5291 95.0314 34.9567 95.0314 37.5295C95.0314 40.1129 93.801 41.5618 91.3134 41.5618H89.5183ZM102.096 43.1651C103.88 43.1651 105.143 42.2862 105.505 40.9545L103.998 40.6829C103.71 41.4553 103.017 41.8494 102.112 41.8494C100.748 41.8494 99.8321 40.9652 99.7895 39.3885H105.606V38.8239C105.606 35.8675 103.838 34.7116 101.984 34.7116C99.7043 34.7116 98.2021 36.4482 98.2021 38.9624C98.2021 41.5032 99.683 43.1651 102.096 43.1651ZM99.7948 38.1953C99.8588 37.0341 100.7 36.0273 101.995 36.0273C103.231 36.0273 104.04 36.9435 104.046 38.1953H99.7948ZM111.193 34.8182H109.515V32.858H107.922V34.8182H106.724V36.0966H107.922V40.9279C107.917 42.4141 109.051 43.1332 110.308 43.1065C110.814 43.1012 111.155 43.0053 111.342 42.9361L111.054 41.6204C110.948 41.6417 110.751 41.6896 110.495 41.6896C109.978 41.6896 109.515 41.5192 109.515 40.5977V36.0966H111.193V34.8182ZM115.335 43.1811C116.688 43.1811 117.45 42.494 117.754 41.8814H117.818V43H119.373V37.5668C119.373 35.1857 117.498 34.7116 116.198 34.7116C114.718 34.7116 113.354 35.3082 112.821 36.7997L114.318 37.1406C114.552 36.56 115.149 36.0007 116.22 36.0007C117.248 36.0007 117.775 36.5387 117.775 37.4656V37.5028C117.775 38.0835 117.179 38.0728 115.708 38.2433C114.158 38.4244 112.571 38.8292 112.571 40.6882C112.571 42.2969 113.78 43.1811 115.335 43.1811ZM115.682 41.9027C114.782 41.9027 114.132 41.4979 114.132 40.7095C114.132 39.8572 114.888 39.5536 115.81 39.4311C116.326 39.3619 117.551 39.2234 117.78 38.9943V40.049C117.78 41.0185 117.008 41.9027 115.682 41.9027ZM121.494 43H123.087V34.8182H121.494V43ZM122.299 33.5558C122.847 33.5558 123.306 33.1296 123.306 32.6076C123.306 32.0856 122.847 31.6541 122.299 31.6541C121.745 31.6541 121.292 32.0856 121.292 32.6076C121.292 33.1296 121.745 33.5558 122.299 33.5558ZM126.823 32.0909H125.23V43H126.823V32.0909ZM135.096 36.8157C134.766 35.5426 133.77 34.7116 132.001 34.7116C130.153 34.7116 128.843 35.6864 128.843 37.1353C128.843 38.2965 129.546 39.0689 131.08 39.4098L132.465 39.7134C133.253 39.8892 133.621 40.2408 133.621 40.7521C133.621 41.386 132.944 41.8814 131.9 41.8814C130.947 41.8814 130.334 41.4712 130.142 40.6669L128.603 40.9013C128.869 42.3501 130.073 43.1651 131.911 43.1651C133.887 43.1651 135.256 42.1158 135.256 40.6349C135.256 39.479 134.521 38.7653 133.019 38.419L131.719 38.1207C130.819 37.9077 130.43 37.604 130.435 37.0501C130.43 36.4215 131.112 35.9741 132.017 35.9741C133.008 35.9741 133.466 36.5227 133.653 37.0714L135.096 36.8157Z" fill="#DE2C4C"/>
<defs>
<linearGradient id="paint0_linear_894_0" x1="20" y1="15" x2="199.371" y2="68.7712" gradientUnits="userSpaceOnUse">
<stop stop-color="#FB0389"/>
<stop offset="1" stop-color="#FF6D31"/>
</linearGradient>
<linearGradient id="paint1_linear_894_0" x1="0" y1="0" x2="32.1953" y2="0.954537" gradientUnits="userSpaceOnUse">
<stop stop-color="#FB0389"/>
<stop offset="1" stop-color="#FF6D31"/>
</linearGradient>
</defs>
</svg>
