<svg width="202" height="75" viewBox="0 0 202 75" fill="none" xmlns="http://www.w3.org/2000/svg">
<path d="M25 15H202V60H8L31.5 27.5L25 15Z" fill="#999999"/>
<path d="M4.0071 60H34.919V53.1747H15.2798V52.8665L23.0518 44.9624C31.8146 36.5518 34.2365 32.4567 34.2365 27.3707C34.2365 19.8189 28.0938 14.2926 19.0227 14.2926C10.0838 14.2926 3.7429 19.8409 3.7429 28.4055H11.5149C11.5149 23.804 14.4212 20.9197 18.9126 20.9197C23.206 20.9197 26.3984 23.5398 26.3984 27.7891C26.3984 31.554 24.1087 34.2401 19.6612 38.7536L4.0071 54.0994V60Z" fill="#222222"/>
<path d="M58.12 42L59.1214 39.1129H63.3828L64.3789 42H66.1261L62.2003 31.0909H60.2987L56.3729 42H58.12ZM59.6009 37.728L61.2095 33.0724H61.2947L62.9034 37.728H59.6009ZM67.5736 45.0682H69.1663V40.7269H69.2622C69.5498 41.2489 70.1357 42.1598 71.6272 42.1598C73.6088 42.1598 75.047 40.5724 75.047 37.9251C75.047 35.2724 73.5874 33.7116 71.6112 33.7116C70.0931 33.7116 69.5445 34.6385 69.2622 35.1445H69.129V33.8182H67.5736V45.0682ZM69.1343 37.9091C69.1343 36.1992 69.8801 35.0646 71.2703 35.0646C72.7139 35.0646 73.4383 36.2844 73.4383 37.9091C73.4383 39.5497 72.6926 40.8015 71.2703 40.8015C69.9014 40.8015 69.1343 39.6296 69.1343 37.9091ZM76.8314 45.0682H78.4241V40.7269H78.52C78.8076 41.2489 79.3936 42.1598 80.885 42.1598C82.8666 42.1598 84.3048 40.5724 84.3048 37.9251C84.3048 35.2724 82.8453 33.7116 80.8691 33.7116C79.3509 33.7116 78.8023 34.6385 78.52 35.1445H78.3868V33.8182H76.8314V45.0682ZM78.3921 37.9091C78.3921 36.1992 79.1379 35.0646 80.5281 35.0646C81.9717 35.0646 82.6961 36.2844 82.6961 37.9091C82.6961 39.5497 81.9504 40.8015 80.5281 40.8015C79.1592 40.8015 78.3921 39.6296 78.3921 37.9091ZM87.6819 31.0909H86.0892V42H87.6819V31.0909ZM89.8246 42H91.4173V33.8182H89.8246V42ZM90.6289 32.5558C91.1776 32.5558 91.6357 32.1296 91.6357 31.6076C91.6357 31.0856 91.1776 30.6541 90.6289 30.6541C90.0749 30.6541 89.6222 31.0856 89.6222 31.6076C89.6222 32.1296 90.0749 32.5558 90.6289 32.5558ZM97.0063 42.1651C98.9399 42.1651 100.192 41.0039 100.367 39.4112H98.8174C98.615 40.2955 97.9278 40.8175 97.017 40.8175C95.6693 40.8175 94.801 39.6935 94.801 37.9091C94.801 36.1566 95.6853 35.054 97.017 35.054C98.029 35.054 98.6469 35.6932 98.8174 36.4602H100.367C100.197 34.8089 98.8493 33.7116 96.9903 33.7116C94.6839 33.7116 93.1924 35.4482 93.1924 37.9464C93.1924 40.4126 94.6306 42.1651 97.0063 42.1651ZM104.452 42.1811C105.805 42.1811 106.566 41.494 106.87 40.8814H106.934V42H108.489V36.5668C108.489 34.1857 106.614 33.7116 105.315 33.7116C103.834 33.7116 102.47 34.3082 101.938 35.7997L103.434 36.1406C103.669 35.56 104.265 35.0007 105.336 35.0007C106.364 35.0007 106.891 35.5387 106.891 36.4656V36.5028C106.891 37.0835 106.295 37.0728 104.825 37.2433C103.275 37.4244 101.687 37.8292 101.687 39.6882C101.687 41.2969 102.896 42.1811 104.452 42.1811ZM104.798 40.9027C103.898 40.9027 103.248 40.4979 103.248 39.7095C103.248 38.8572 104.004 38.5536 104.926 38.4311C105.442 38.3619 106.668 38.2234 106.897 37.9943V39.049C106.897 40.0185 106.124 40.9027 104.798 40.9027ZM114.43 33.8182H112.752V31.858H111.159V33.8182H109.961V35.0966H111.159V39.9279C111.154 41.4141 112.289 42.1332 113.546 42.1065C114.052 42.1012 114.393 42.0053 114.579 41.9361L114.291 40.6204C114.185 40.6417 113.988 40.6896 113.732 40.6896C113.215 40.6896 112.752 40.5192 112.752 39.5977V35.0966H114.43V33.8182ZM116.192 42H117.784V33.8182H116.192V42ZM116.996 32.5558C117.545 32.5558 118.003 32.1296 118.003 31.6076C118.003 31.0856 117.545 30.6541 116.996 30.6541C116.442 30.6541 115.989 31.0856 115.989 31.6076C115.989 32.1296 116.442 32.5558 116.996 32.5558ZM123.373 42.1651C125.68 42.1651 127.187 40.4766 127.187 37.9464C127.187 35.4002 125.68 33.7116 123.373 33.7116C121.067 33.7116 119.56 35.4002 119.56 37.9464C119.56 40.4766 121.067 42.1651 123.373 42.1651ZM123.379 40.8281C121.871 40.8281 121.168 39.5124 121.168 37.9411C121.168 36.375 121.871 35.0433 123.379 35.0433C124.876 35.0433 125.579 36.375 125.579 37.9411C125.579 39.5124 124.876 40.8281 123.379 40.8281ZM130.558 37.142C130.558 35.837 131.357 35.0913 132.465 35.0913C133.546 35.0913 134.201 35.7997 134.201 36.9876V42H135.794V36.7958C135.794 34.7717 134.681 33.7116 133.008 33.7116C131.778 33.7116 130.973 34.2816 130.595 35.1499H130.494V33.8182H128.965V42H130.558V37.142ZM142.028 42H143.674V37.2433H148.308V35.8317H143.674V32.5078H148.793V31.0909H142.028V42ZM153.535 42.1651C155.841 42.1651 157.349 40.4766 157.349 37.9464C157.349 35.4002 155.841 33.7116 153.535 33.7116C151.228 33.7116 149.721 35.4002 149.721 37.9464C149.721 40.4766 151.228 42.1651 153.535 42.1651ZM153.54 40.8281C152.032 40.8281 151.329 39.5124 151.329 37.9411C151.329 36.375 152.032 35.0433 153.54 35.0433C155.037 35.0433 155.74 36.375 155.74 37.9411C155.74 39.5124 155.037 40.8281 153.54 40.8281ZM159.126 42H160.719V37.0036C160.719 35.9329 161.545 35.1605 162.674 35.1605C163.004 35.1605 163.377 35.2191 163.505 35.2564V33.733C163.345 33.7116 163.031 33.6957 162.828 33.6957C161.87 33.6957 161.049 34.239 160.751 35.1179H160.666V33.8182H159.126V42ZM164.883 42H166.476V36.9556C166.476 35.853 167.248 35.0859 168.154 35.0859C169.038 35.0859 169.651 35.6719 169.651 36.5614V42H171.238V36.7852C171.238 35.7997 171.84 35.0859 172.879 35.0859C173.72 35.0859 174.413 35.5547 174.413 36.6626V42H176.005V36.5135C176.005 34.6438 174.961 33.7116 173.48 33.7116C172.303 33.7116 171.419 34.2763 171.025 35.1499H170.94C170.583 34.255 169.832 33.7116 168.74 33.7116C167.658 33.7116 166.854 34.2496 166.513 35.1499H166.412V33.8182H164.883V42Z" fill="#222222"/>
</svg>
