<svg width="182" height="45" viewBox="0 0 182 45" fill="none" xmlns="http://www.w3.org/2000/svg">
<rect width="182" height="45" fill="#1E1E1E"/>
<path opacity="0.4" d="M0 0H182V45H0V0Z" fill="url(#paint0_linear_0_1)"/>
<path d="M24.1985 29V18.0909H28.087C28.9322 18.0909 29.6335 18.2365 30.1911 18.5277C30.7521 18.8189 31.1712 19.2219 31.4482 19.7369C31.7251 20.2482 31.8636 20.8395 31.8636 21.5107C31.8636 22.1783 31.7234 22.766 31.4428 23.2738C31.1658 23.7781 30.7468 24.1705 30.1857 24.451C29.6282 24.7315 28.9268 24.8718 28.0817 24.8718H25.136V23.4549H27.9325C28.4652 23.4549 28.8984 23.3786 29.2322 23.2259C29.5696 23.0732 29.8164 22.8512 29.9727 22.56C30.1289 22.2688 30.207 21.919 30.207 21.5107C30.207 21.0987 30.1271 20.7418 29.9673 20.44C29.8111 20.1381 29.5643 19.9073 29.2269 19.7475C28.8931 19.5842 28.4545 19.5025 27.9112 19.5025H25.8445V29H24.1985ZM29.5838 24.0781L32.2791 29H30.4041L27.7621 24.0781H29.5838ZM37.1624 29.1651C36.3563 29.1651 35.662 28.9929 35.0796 28.6484C34.5008 28.3004 34.0534 27.8121 33.7373 27.1836C33.4248 26.5515 33.2686 25.8111 33.2686 24.9624C33.2686 24.1243 33.4248 23.3857 33.7373 22.7464C34.0534 22.1072 34.4937 21.6083 35.0583 21.2496C35.6265 20.891 36.2906 20.7116 37.0505 20.7116C37.5122 20.7116 37.9596 20.788 38.3928 20.9407C38.8261 21.0934 39.2149 21.3331 39.5594 21.6598C39.9039 21.9865 40.1755 22.4109 40.3744 22.9329C40.5732 23.4513 40.6727 24.0817 40.6727 24.8239V25.3885H34.1688V24.1953H39.1119C39.1119 23.7763 39.0267 23.4052 38.8563 23.082C38.6858 22.7553 38.4461 22.4979 38.1372 22.3097C37.8318 22.1214 37.4731 22.0273 37.0612 22.0273C36.6137 22.0273 36.2231 22.1374 35.8893 22.3576C35.559 22.5742 35.3034 22.8583 35.1222 23.2099C34.9447 23.5579 34.8559 23.9361 34.8559 24.3445V25.2766C34.8559 25.8235 34.9518 26.2887 35.1436 26.6722C35.3389 27.0558 35.6105 27.3487 35.9585 27.5511C36.3066 27.75 36.7132 27.8494 37.1784 27.8494C37.4802 27.8494 37.7554 27.8068 38.004 27.7216C38.2526 27.6328 38.4674 27.5014 38.6485 27.3274C38.8296 27.1534 38.9681 26.9386 39.064 26.6829L40.5715 26.9545C40.4507 27.3984 40.2341 27.7873 39.9216 28.1211C39.6127 28.4513 39.2238 28.7088 38.7551 28.8935C38.2899 29.0746 37.759 29.1651 37.1624 29.1651ZM45.8862 29.1651C45.0943 29.1651 44.4125 28.9858 43.8407 28.6271C43.2725 28.2649 42.8358 27.766 42.5304 27.1303C42.225 26.4947 42.0723 25.7667 42.0723 24.9464C42.0723 24.1154 42.2285 23.3821 42.541 22.7464C42.8535 22.1072 43.2939 21.6083 43.862 21.2496C44.4302 20.891 45.0996 20.7116 45.8702 20.7116C46.4917 20.7116 47.0456 20.8271 47.5321 21.0579C48.0186 21.2852 48.411 21.6048 48.7093 22.0167C49.0112 22.4286 49.1905 22.9098 49.2473 23.4602H47.6973C47.612 23.0767 47.4167 22.7464 47.1113 22.4695C46.8095 22.1925 46.4047 22.054 45.8968 22.054C45.4529 22.054 45.0641 22.1712 44.7303 22.4055C44.4 22.6364 44.1426 22.9666 43.9579 23.3963C43.7733 23.8224 43.6809 24.3267 43.6809 24.9091C43.6809 25.5057 43.7715 26.0206 43.9526 26.4538C44.1337 26.8871 44.3894 27.2227 44.7196 27.4606C45.0534 27.6985 45.4458 27.8175 45.8968 27.8175C46.1987 27.8175 46.4721 27.7624 46.7172 27.6523C46.9657 27.5387 47.1735 27.3771 47.3404 27.1676C47.5108 26.9581 47.6298 26.706 47.6973 26.4112H49.2473C49.1905 26.9403 49.0183 27.4126 48.7306 27.8281C48.443 28.2436 48.0577 28.5703 47.5748 28.8082C47.0953 29.0462 46.5325 29.1651 45.8862 29.1651ZM52.4154 26.2248L52.4047 24.2805H52.6817L55.9417 20.8182H57.8486L54.1306 24.7599H53.8802L52.4154 26.2248ZM50.9506 29V18.0909H52.5432V29H50.9506ZM56.1175 29L53.1878 25.1115L54.2851 23.9982L58.0724 29H56.1175ZM62.4096 29.1651C61.6426 29.1651 60.9732 28.9893 60.4015 28.6378C59.8297 28.2862 59.3858 27.7944 59.0698 27.1623C58.7537 26.5302 58.5957 25.7915 58.5957 24.9464C58.5957 24.0977 58.7537 23.3555 59.0698 22.7198C59.3858 22.0842 59.8297 21.5906 60.4015 21.239C60.9732 20.8874 61.6426 20.7116 62.4096 20.7116C63.1767 20.7116 63.8461 20.8874 64.4178 21.239C64.9895 21.5906 65.4334 22.0842 65.7495 22.7198C66.0655 23.3555 66.2235 24.0977 66.2235 24.9464C66.2235 25.7915 66.0655 26.5302 65.7495 27.1623C65.4334 27.7944 64.9895 28.2862 64.4178 28.6378C63.8461 28.9893 63.1767 29.1651 62.4096 29.1651ZM62.415 27.8281C62.9121 27.8281 63.324 27.6967 63.6507 27.4339C63.9775 27.1712 64.2189 26.8214 64.3752 26.3846C64.535 25.9478 64.6149 25.4666 64.6149 24.9411C64.6149 24.419 64.535 23.9396 64.3752 23.5028C64.2189 23.0625 63.9775 22.7092 63.6507 22.4428C63.324 22.1765 62.9121 22.0433 62.415 22.0433C61.9142 22.0433 61.4988 22.1765 61.1685 22.4428C60.8418 22.7092 60.5985 23.0625 60.4387 23.5028C60.2825 23.9396 60.2044 24.419 60.2044 24.9411C60.2044 25.4666 60.2825 25.9478 60.4387 26.3846C60.5985 26.8214 60.8418 27.1712 61.1685 27.4339C61.4988 27.6967 61.9142 27.8281 62.415 27.8281ZM69.594 24.142V29H68.0013V20.8182H69.5301V22.1499H69.6313C69.8195 21.7166 70.1143 21.3686 70.5155 21.1058C70.9204 20.843 71.43 20.7116 72.0443 20.7116C72.6018 20.7116 73.0901 20.8288 73.5091 21.0632C73.9282 21.294 74.2531 21.6385 74.4839 22.0966C74.7148 22.5547 74.8302 23.1211 74.8302 23.7958V29H73.2375V23.9876C73.2375 23.3945 73.083 22.9311 72.7741 22.5973C72.4651 22.2599 72.0407 22.0913 71.501 22.0913C71.1317 22.0913 70.8032 22.1712 70.5155 22.331C70.2314 22.4908 70.0059 22.7251 69.839 23.0341C69.6757 23.3395 69.594 23.7088 69.594 24.142ZM83.0972 22.8157L81.6537 23.0714C81.5933 22.8867 81.4974 22.7109 81.366 22.544C81.2382 22.3771 81.0642 22.2404 80.844 22.1339C80.6238 22.0273 80.3486 21.9741 80.0184 21.9741C79.5674 21.9741 79.191 22.0753 78.8891 22.2777C78.5873 22.4766 78.4363 22.734 78.4363 23.0501C78.4363 23.3235 78.5376 23.5437 78.74 23.7106C78.9424 23.8775 79.2691 24.0142 79.7201 24.1207L81.0198 24.419C81.7726 24.593 82.3337 24.8612 82.703 25.2234C83.0724 25.5856 83.257 26.0561 83.257 26.6349C83.257 27.125 83.115 27.5618 82.8309 27.9453C82.5503 28.3253 82.1579 28.6236 81.6537 28.8402C81.153 29.0568 80.5724 29.1651 79.9118 29.1651C78.9956 29.1651 78.2481 28.9698 77.6693 28.5792C77.0905 28.185 76.7354 27.6257 76.604 26.9013L78.1434 26.6669C78.2393 27.0682 78.4363 27.3718 78.7346 27.5778C79.0329 27.7802 79.4218 27.8814 79.9012 27.8814C80.4232 27.8814 80.8405 27.7731 81.153 27.5565C81.4655 27.3363 81.6217 27.0682 81.6217 26.7521C81.6217 26.4964 81.5258 26.2816 81.3341 26.1076C81.1459 25.9336 80.8564 25.8022 80.4658 25.7134L79.0809 25.4098C78.3174 25.2358 77.7528 24.9588 77.387 24.5788C77.0248 24.1989 76.8437 23.7177 76.8437 23.1353C76.8437 22.6523 76.9786 22.2298 77.2485 21.8675C77.5184 21.5053 77.8912 21.223 78.3671 21.0206C78.843 20.8146 79.3881 20.7116 80.0024 20.7116C80.8866 20.7116 81.5827 20.9034 82.0905 21.2869C82.5983 21.6669 82.9339 22.1765 83.0972 22.8157ZM86.0149 32.0682C85.777 32.0682 85.5604 32.0487 85.3651 32.0096C85.1697 31.9741 85.0241 31.935 84.9283 31.8924L85.3118 30.5874C85.603 30.6655 85.8622 30.6992 86.0895 30.6886C86.3168 30.6779 86.5174 30.5927 86.6914 30.4329C86.869 30.2731 87.0252 30.0121 87.1602 29.6499L87.3572 29.1065L84.3636 20.8182H86.0682L88.1403 27.1676H88.2255L90.2976 20.8182H92.0075L88.6357 30.092C88.4794 30.5181 88.2805 30.8786 88.0391 31.1733C87.7976 31.4716 87.5099 31.6953 87.1761 31.8445C86.8423 31.9936 86.4553 32.0682 86.0149 32.0682ZM99.6353 22.8157L98.1918 23.0714C98.1314 22.8867 98.0355 22.7109 97.9041 22.544C97.7763 22.3771 97.6023 22.2404 97.3821 22.1339C97.1619 22.0273 96.8867 21.9741 96.5565 21.9741C96.1055 21.9741 95.729 22.0753 95.4272 22.2777C95.1254 22.4766 94.9744 22.734 94.9744 23.0501C94.9744 23.3235 95.0756 23.5437 95.2781 23.7106C95.4805 23.8775 95.8072 24.0142 96.2582 24.1207L97.5579 24.419C98.3107 24.593 98.8718 24.8612 99.2411 25.2234C99.6104 25.5856 99.7951 26.0561 99.7951 26.6349C99.7951 27.125 99.6531 27.5618 99.369 27.9453C99.0884 28.3253 98.696 28.6236 98.1918 28.8402C97.6911 29.0568 97.1104 29.1651 96.4499 29.1651C95.5337 29.1651 94.7862 28.9698 94.2074 28.5792C93.6286 28.185 93.2734 27.6257 93.142 26.9013L94.6815 26.6669C94.7773 27.0682 94.9744 27.3718 95.2727 27.5778C95.571 27.7802 95.9599 27.8814 96.4393 27.8814C96.9613 27.8814 97.3786 27.7731 97.6911 27.5565C98.0036 27.3363 98.1598 27.0682 98.1598 26.7521C98.1598 26.4964 98.0639 26.2816 97.8722 26.1076C97.6839 25.9336 97.3945 25.8022 97.0039 25.7134L95.619 25.4098C94.8555 25.2358 94.2908 24.9588 93.9251 24.5788C93.5629 24.1989 93.3817 23.7177 93.3817 23.1353C93.3817 22.6523 93.5167 22.2298 93.7866 21.8675C94.0565 21.5053 94.4293 21.223 94.9052 21.0206C95.381 20.8146 95.9261 20.7116 96.5405 20.7116C97.4247 20.7116 98.1207 20.9034 98.6286 21.2869C99.1364 21.6669 99.4719 22.1765 99.6353 22.8157ZM107.78 29L104.754 18.0909H106.485L108.611 26.5391H108.712L110.923 18.0909H112.638L114.848 26.5444H114.95L117.07 18.0909H118.806L115.775 29H114.119L111.823 20.8288H111.738L109.442 29H107.78ZM122.9 29.1651C122.094 29.1651 121.399 28.9929 120.817 28.6484C120.238 28.3004 119.791 27.8121 119.475 27.1836C119.162 26.5515 119.006 25.8111 119.006 24.9624C119.006 24.1243 119.162 23.3857 119.475 22.7464C119.791 22.1072 120.231 21.6083 120.796 21.2496C121.364 20.891 122.028 20.7116 122.788 20.7116C123.249 20.7116 123.697 20.788 124.13 20.9407C124.563 21.0934 124.952 21.3331 125.297 21.6598C125.641 21.9865 125.913 22.4109 126.112 22.9329C126.311 23.4513 126.41 24.0817 126.41 24.8239V25.3885H119.906V24.1953H124.849C124.849 23.7763 124.764 23.4052 124.594 23.082C124.423 22.7553 124.183 22.4979 123.874 22.3097C123.569 22.1214 123.21 22.0273 122.798 22.0273C122.351 22.0273 121.96 22.1374 121.627 22.3576C121.296 22.5742 121.041 22.8583 120.86 23.2099C120.682 23.5579 120.593 23.9361 120.593 24.3445V25.2766C120.593 25.8235 120.689 26.2887 120.881 26.6722C121.076 27.0558 121.348 27.3487 121.696 27.5511C122.044 27.75 122.45 27.8494 122.916 27.8494C123.218 27.8494 123.493 27.8068 123.741 27.7216C123.99 27.6328 124.205 27.5014 124.386 27.3274C124.567 27.1534 124.705 26.9386 124.801 26.6829L126.309 26.9545C126.188 27.3984 125.971 27.7873 125.659 28.1211C125.35 28.4513 124.961 28.7088 124.492 28.8935C124.027 29.0746 123.496 29.1651 122.9 29.1651ZM128.305 29V18.0909H129.898V22.1445H129.994C130.086 21.9741 130.219 21.777 130.393 21.5533C130.567 21.3295 130.809 21.1342 131.117 20.9673C131.426 20.7969 131.835 20.7116 132.343 20.7116C133.003 20.7116 133.593 20.8786 134.111 21.2124C134.63 21.5462 135.036 22.0273 135.331 22.6559C135.629 23.2844 135.778 24.0408 135.778 24.9251C135.778 25.8093 135.631 26.5675 135.336 27.1996C135.041 27.8281 134.637 28.3129 134.122 28.6538C133.607 28.9911 133.019 29.1598 132.359 29.1598C131.861 29.1598 131.455 29.0763 131.139 28.9094C130.826 28.7425 130.581 28.5472 130.404 28.3235C130.226 28.0998 130.089 27.9009 129.994 27.7269H129.86V29H128.305ZM129.866 24.9091C129.866 25.4844 129.949 25.9886 130.116 26.4219C130.283 26.8551 130.524 27.1942 130.84 27.4393C131.157 27.6808 131.544 27.8015 132.002 27.8015C132.478 27.8015 132.875 27.6754 133.195 27.4233C133.514 27.1676 133.756 26.8214 133.919 26.3846C134.086 25.9478 134.17 25.456 134.17 24.9091C134.17 24.3693 134.088 23.8846 133.925 23.4549C133.765 23.0252 133.523 22.6861 133.2 22.4375C132.881 22.1889 132.481 22.0646 132.002 22.0646C131.54 22.0646 131.149 22.1836 130.83 22.4215C130.514 22.6594 130.274 22.9915 130.111 23.4176C129.947 23.8437 129.866 24.3409 129.866 24.9091ZM147.614 20.9567C147.557 20.4524 147.323 20.0618 146.911 19.7848C146.499 19.5043 145.981 19.364 145.356 19.364C144.908 19.364 144.521 19.435 144.195 19.5771C143.868 19.7156 143.614 19.9073 143.433 20.1523C143.255 20.3938 143.166 20.669 143.166 20.978C143.166 21.2372 143.227 21.4609 143.348 21.6491C143.472 21.8374 143.633 21.9954 143.832 22.1232C144.035 22.2475 144.251 22.3523 144.482 22.4375C144.713 22.5192 144.935 22.5866 145.148 22.6399L146.213 22.9169C146.561 23.0021 146.918 23.1175 147.284 23.2631C147.65 23.4087 147.989 23.6005 148.301 23.8384C148.614 24.0763 148.866 24.3711 149.058 24.7227C149.253 25.0742 149.351 25.495 149.351 25.9851C149.351 26.603 149.191 27.1516 148.871 27.631C148.555 28.1104 148.095 28.4886 147.492 28.7656C146.892 29.0426 146.165 29.1811 145.313 29.1811C144.496 29.1811 143.79 29.0515 143.193 28.7923C142.597 28.533 142.13 28.1655 141.792 27.6896C141.455 27.2102 141.268 26.642 141.233 25.9851H142.884C142.916 26.3793 143.044 26.7077 143.268 26.9705C143.495 27.2298 143.784 27.4233 144.136 27.5511C144.491 27.6754 144.88 27.7376 145.302 27.7376C145.768 27.7376 146.181 27.6648 146.544 27.5192C146.909 27.37 147.197 27.1641 147.407 26.9013C147.616 26.6349 147.721 26.3242 147.721 25.9691C147.721 25.646 147.628 25.3814 147.444 25.1754C147.263 24.9695 147.016 24.799 146.703 24.6641C146.394 24.5291 146.045 24.4102 145.654 24.3072L144.365 23.9556C143.491 23.7177 142.799 23.3679 142.288 22.9062C141.78 22.4446 141.526 21.8338 141.526 21.0739C141.526 20.4453 141.696 19.8967 142.037 19.4279C142.378 18.9592 142.84 18.5952 143.422 18.3359C144.005 18.0732 144.661 17.9418 145.393 17.9418C146.132 17.9418 146.783 18.0714 147.348 18.3306C147.916 18.5898 148.364 18.9467 148.69 19.4013C149.017 19.8523 149.187 20.3707 149.202 20.9567H147.614ZM151.19 29V20.8182H152.782V29H151.19ZM151.994 19.5558C151.717 19.5558 151.479 19.4634 151.28 19.2788C151.085 19.0906 150.987 18.8668 150.987 18.6076C150.987 18.3448 151.085 18.1211 151.28 17.9364C151.479 17.7482 151.717 17.6541 151.994 17.6541C152.271 17.6541 152.507 17.7482 152.703 17.9364C152.901 18.1211 153.001 18.3448 153.001 18.6076C153.001 18.8668 152.901 19.0906 152.703 19.2788C152.507 19.4634 152.271 19.5558 151.994 19.5558ZM158.744 20.8182V22.0966H154.275V20.8182H158.744ZM155.474 18.858H157.066V26.5977C157.066 26.9066 157.113 27.1392 157.205 27.2955C157.297 27.4482 157.416 27.5529 157.562 27.6097C157.711 27.663 157.873 27.6896 158.047 27.6896C158.174 27.6896 158.286 27.6808 158.382 27.663C158.478 27.6452 158.553 27.631 158.606 27.6204L158.894 28.9361C158.801 28.9716 158.67 29.0071 158.499 29.0426C158.329 29.0817 158.116 29.103 157.86 29.1065C157.441 29.1136 157.051 29.0391 156.688 28.8828C156.326 28.7266 156.033 28.4851 155.809 28.1584C155.586 27.8317 155.474 27.4215 155.474 26.9279V18.858ZM163.945 29.1651C163.138 29.1651 162.444 28.9929 161.862 28.6484C161.283 28.3004 160.836 27.8121 160.52 27.1836C160.207 26.5515 160.051 25.8111 160.051 24.9624C160.051 24.1243 160.207 23.3857 160.52 22.7464C160.836 22.1072 161.276 21.6083 161.841 21.2496C162.409 20.891 163.073 20.7116 163.833 20.7116C164.294 20.7116 164.742 20.788 165.175 20.9407C165.608 21.0934 165.997 21.3331 166.342 21.6598C166.686 21.9865 166.958 22.4109 167.157 22.9329C167.355 23.4513 167.455 24.0817 167.455 24.8239V25.3885H160.951V24.1953H165.894C165.894 23.7763 165.809 23.4052 165.638 23.082C165.468 22.7553 165.228 22.4979 164.919 22.3097C164.614 22.1214 164.255 22.0273 163.843 22.0273C163.396 22.0273 163.005 22.1374 162.672 22.3576C162.341 22.5742 162.086 22.8583 161.904 23.2099C161.727 23.5579 161.638 23.9361 161.638 24.3445V25.2766C161.638 25.8235 161.734 26.2887 161.926 26.6722C162.121 27.0558 162.393 27.3487 162.741 27.5511C163.089 27.75 163.495 27.8494 163.961 27.8494C164.262 27.8494 164.538 27.8068 164.786 27.7216C165.035 27.6328 165.25 27.5014 165.431 27.3274C165.612 27.1534 165.75 26.9386 165.846 26.6829L167.354 26.9545C167.233 27.3984 167.016 27.7873 166.704 28.1211C166.395 28.4513 166.006 28.7088 165.537 28.8935C165.072 29.0746 164.541 29.1651 163.945 29.1651Z" fill="white"/>
<defs>
<linearGradient id="paint0_linear_0_1" x1="0" y1="0" x2="179.371" y2="53.7712" gradientUnits="userSpaceOnUse">
<stop stop-color="#FB0389"/>
<stop offset="1" stop-color="#FF6D31"/>
</linearGradient>
</defs>
</svg>
